/* XPM */
static const char *Backup_collectable_[] = {
/* columns rows colors chars-per-pixel */
"87 88 5 1 ",
"  c #06A2E0",
". c #00EAFF",
"X c #96F8FF",
"o c #FBFFFF",
"O c None",
/* pixels */
"OOOOOOOOOOOOOOOOOOOOOOOOOOOOOOOOOOOOOOOOOOOOOOOOOOOOOOOOOOOOOOOOOOOOOOOOOOOOOOOOOOOOOOO",
"OOOOOOOOOOOOOOOOOOOOOOOOOOOOOOOOOOOOOOOOOOOOOOOOOOOOOOOOOOOOOOOOOOOOOOOOOOOOOOOOOOOOOOO",
"OOOOOOOOOOOOOOOOOOOOOOOOOOOOOOOOOOOOOOOOOOOOOOOOOOOOOOOOOOOOOOOOOOOOOOOOOOOOOOOOOOOOOOO",
"OOOOOOOOOOOOOOOOOOOOOOOOOOOOOOOOOOOOOOOOOOOOOOOOOOOOOOOOOOOOOOOOOOOOOOOOOOOOOOOOOOOOOOO",
"OOOOOOOOOOOOOOOOOOOOOOOOOOOOOOOOOOOOOOOOOOOOOOOOOOOOOOOOOOOOOOOOOOOOOOOOOOOOOOOOOOOOOOO",
"OOOOOOOOOOOOOOOOOOOOOOOOOOOOOOOOOOOOOOOOOOOOOOOOOOOOOOOOOOOOOOOOOOOOOOOOOOOOOOOOOOOOOOO",
"OOOOOOOOOOOOOOOOOOOOOOOOOOOOOOOOOOOOOOOOOOOOOOOOOOOOOOOOOOOOOOOOOOOOOOOOOOOOOOOOOOOOOOO",
"OOOOOOOOOOOOOOOOOOOOOOOOOOOOOOOOOOOOO             OOOOOOOOOOOOOOOOOOOOOOOOOOOOOOOOOOOOO",
"OOOOOOOOOOOOOOOOOOOOOOOOOOOOOOOOO                     OOOOOOOOOOOOOOOOOOOOOOOOOOOOOOOOO",
"OOOOOOOOOOOOOOOOOOOOOOOOOOOOOO                           OOOOOOOOOOOOOOOOOOOOOOOOOOOOOO",
"OOOOOOOOOOOOOOOOOOOOOOOOOOOO                               OOOOOOOOOOOOOOOOOOOOOOOOOOOO",
"OOOOOOOOOOOOOOOOOOOOOOOOOO           .   ..  .   .           OOOOOOOOOOOOOOOOOOOOOOOOOO",
"OOOOOOOOOOOOOOOOOOOOOOOO          . . ........... . .          OOOOOOOOOOOOOOOOOOOOOOOO",
"OOOOOOOOOOOOOOOOOOOOOOO          .....................          OOOOOOOOOOOOOOOOOOOOOOO",
"OOOOOOOOOOOOOOOOOOOOO        .  .......................  .        OOOOOOOOOOOOOOOOOOOOO",
"OOOOOOOOOOOOOOOOOOOO      .   ...........................   .      OOOOOOOOOOOOOOOOOOOO",
"OOOOOOOOOOOOOOOOOOO         ...............................         OOOOOOOOOOOOOOOOOOO",
"OOOOOOOOOOOOOOOOOO      .. .......X....X.XX.XX.X....X....... ..      OOOOOOOOOOOOOOOOOO",
"OOOOOOOOOOOOOOOOO        ...............X..XX.X...............        OOOOOOOOOOOOOOOOO",
"OOOOOOOOOOOOOOOO        ............XX.XXXXXXXXX.XX............        OOOOOOOOOOOOOOOO",
"OOOOOOOOOOOOOOO        ........X.XXXXXXXXXXXXXXXXXXXXX.X........        OOOOOOOOOOOOOOO",
"OOOOOOOOOOOOOOO      ...........X.XXXoXoXoooooXoXoXXX.X..........       OOOOOOOOOOOOOOO",
"OOOOOOOOOOOOOO      ..........XXXXoXoXoooooooooooXoXoXXXX..........      OOOOOOOOOOOOOO",
"OOOOOOOOOOOOO       .......X.XXoXoooooooooooooooooooooXoXX.X.......       OOOOOOOOOOOOO",
"OOOOOOOOOOOO      ..........XXXoooooooooooooooooooooooooXXX..........      OOOOOOOOOOOO",
"OOOOOOOOOOOO      ....X.XX.XXoXoooooooooooooooooooooooooXoXX.XX.X....      OOOOOOOOOOOO",
"OOOOOOOOOOO      ........XXXoooooooooooooooooooooooooooooooXXX........      OOOOOOOOOOO",
"OOOOOOOOOOO      .......XXXoXoooooooooooooooooooooooooooooXoXXX.......      OOOOOOOOOOO",
"OOOOOOOOOO     ........XXXoooooooooooooooooooooooooooooooooooXXX........     OOOOOOOOOO",
"OOOOOOOOOO      .......XoXoooooooooooooooooooooooooooooooooooXoX.......      OOOOOOOOOO",
"OOOOOOOOO     ........XXXoooooooooooooooooooooooooooooooooooooXXX........     OOOOOOOOO",
"OOOOOOOOO      ......XXXXoooooooooooooooooooooooooooooooooooooXXXX......      OOOOOOOOO",
"OOOOOOOOO    . .....X.XoXoooooooooooooooooooooooooooooooooooooXoX.X..... .    OOOOOOOOO",
"OOOOOOOO      .....XXXXoooooooooooooooooooooooooooooooooooooooooXXXX.....      OOOOOOOO",
"OOOOOOOO    .........XoXoooooooooooooooooooooooooooooooooooooooXoX.........    OOOOOOOO",
"OOOOOOOO     ......XXXoooooooooooooooooooooooooooooooooooooooooooXXX......     OOOOOOOO",
"OOOOOOOO    . ....X.XXXoooooooooooooooooooooooooooooooooooooooooXXX.X.... .    OOOOOOOO",
"OOOOOOOO    ......XXXoooooooooooooooooooooooooooooooooooooooooooooXXX......    OOOOOOOO",
"OOOOOOO   .  .....X.XoooooooooooooooooooooooooooooooooooooooooooooX.X.....  .   OOOOOOO",
"OOOOOOO    .......XXoXoooooooooooooooooooooooooooooooooooooooooooXoXX.......    OOOOOOO",
"OOOOOOO     .......XoooooooooooooooooooooooooooooooooooooooooooooooX.......     OOOOOOO",
"OOOOOOO   .  ....X.XXoooooooooooooooooooooooooooooooooooooooooooooXX.X....  .   OOOOOOO",
"OOOOOOO    .......X.ooooooooooooooooooooooooooooooooooooooooooooooo.X.......    OOOOOOO",
"OOOOOOO     .......XoooooooooooooooooooooooooooooooooooooooooooooooX.......     OOOOOOO",
"OOOOOOO     ......XXXoooooooooooooooooooooooooooooooooooooooooooooXXX......     OOOOOOO",
"OOOOOOO     .......XoooooooooooooooooooooooooooooooooooooooooooooooX.......     OOOOOOO",
"OOOOOOO   .  ....X.XoooooooooooooooooooooooooooooooooooooooooooooooX.X....  .   OOOOOOO",
"OOOOOOO     ......XXoooooooooooooooooooooooooooooooooooooooooooooooXX......     OOOOOOO",
"OOOOOOO     .......XXoooooooooooooooooooooooooooooooooooooooooooooXX.......     OOOOOOO",
"OOOOOOO     .....X.XXXoooooooooooooooooooooooooooooooooooooooooooXXX.X.....     OOOOOOO",
"OOOOOOOO  .  .....X.XoooooooooooooooooooooooooooooooooooooooooooooX.X.....  .  OOOOOOOO",
"OOOOOOOO   ........XXoooooooooooooooooooooooooooooooooooooooooooooXX........   OOOOOOOO",
"OOOOOOOO    . ....X.XXXoooooooooooooooooooooooooooooooooooooooooXXX.X.... .    OOOOOOOO",
"OOOOOOOO     ......XXXoooooooooooooooooooooooooooooooooooooooooooXXX......     OOOOOOOO",
"OOOOOOOO    ........XXXoXoooooooooooooooooooooooooooooooooooooXoXXX........    OOOOOOOO",
"OOOOOOOOO     .....XXXoXoooooooooooooooooooooooooooooooooooooooXoXXX.....     OOOOOOOOO",
"OOOOOOOOO     .......XXXoooooooooooooooooooooooooooooooooooooooXXX.......     OOOOOOOOO",
"OOOOOOOOO      ......XXXXXoooooooooooooooooooooooooooooooooooXXXXX......      OOOOOOOOO",
"OOOOOOOOOO      .......XXoooooooooooooooooooooooooooooooooooooXX.......      OOOOOOOOOO",
"OOOOOOOOOO    . .....XX.X.oXoooooooooooooooooooooooooooooooXo.X.XX..... .    OOOOOOOOOO",
"OOOOOOOOOOO    ........XXXXoooooooooooooooooooooooooooooooooXXXX........    OOOOOOOOOOO",
"OOOOOOOOOOO    . .......X.XXoXoooooooooooooooooooooooooooXoXX.X....... .    OOOOOOOOOOO",
"OOOOOOOOOOOO     ........XXXXoXoooooooooooooooooooooooooXoXXXX........     OOOOOOOOOOOO",
"OOOOOOOOOOOO      ..........XXXoXoooooooooooooooooooooXoXXX..........      OOOOOOOOOOOO",
"OOOOOOOOOOOOO    .. .....X..XXXXXoooXoooooooooooooXoooXXXXX..X..... ..    OOOOOOOOOOOOO",
"OOOOOOOOOOOOOO      .......X.XX.XXoXooXoooooooooXooXoXX.XX.X.......      OOOOOOOOOOOOOO",
"OOOOOOOOOOOOOOO     . .....X.X.X.XXXXoXXoooooooXXoXXXX.X.X.X..... .     OOOOOOOOOOOOOOO",
"OOOOOOOOOOOOOOO      ..........X.XXXXXXXXXXXXXXXXXXXXX.X..........      OOOOOOOOOOOOOOO",
"OOOOOOOOOOOOOOOO      .............XXXX.XXXXXXX.XXXX.............      OOOOOOOOOOOOOOOO",
"OOOOOOOOOOOOOOOOO       ...........X..XXXXXXXXXXX..X...........       OOOOOOOOOOOOOOOOO",
"OOOOOOOOOOOOOOOOOO     .............X.XX...XX..XX.X.............     OOOOOOOOOOOOOOOOOO",
"OOOOOOOOOOOOOOOOOOO       ...........X.X.XXXXX.X.X............      OOOOOOOOOOOOOOOOOOO",
"OOOOOOOOOOOOOOOOOOOO      ...................................      OOOOOOOOOOOOOOOOOOOO",
"OOOOOOOOOOOOOOOOOOOOO       .. ......................... .        OOOOOOOOOOOOOOOOOOOOO",
"OOOOOOOOOOOOOOOOOOOOOOO        .........................        OOOOOOOOOOOOOOOOOOOOOOO",
"OOOOOOOOOOOOOOOOOOOOOOOO         . . . ......... . . ..        OOOOOOOOOOOOOOOOOOOOOOOO",
"OOOOOOOOOOOOOOOOOOOOOOOOOO          ... .     . ...          OOOOOOOOOOOOOOOOOOOOOOOOOO",
"OOOOOOOOOOOOOOOOOOOOOOOOOOOO          . ...  .. .          OOOOOOOOOOOOOOOOOOOOOOOOOOOO",
"OOOOOOOOOOOOOOOOOOOOOOOOOOOOOO                           OOOOOOOOOOOOOOOOOOOOOOOOOOOOOO",
"OOOOOOOOOOOOOOOOOOOOOOOOOOOOOOOOO                     OOOOOOOOOOOOOOOOOOOOOOOOOOOOOOOOO",
"OOOOOOOOOOOOOOOOOOOOOOOOOOOOOOOOOOOOO             OOOOOOOOOOOOOOOOOOOOOOOOOOOOOOOOOOOOO",
"OOOOOOOOOOOOOOOOOOOOOOOOOOOOOOOOOOOOOOOOOOOOOOOOOOOOOOOOOOOOOOOOOOOOOOOOOOOOOOOOOOOOOOO",
"OOOOOOOOOOOOOOOOOOOOOOOOOOOOOOOOOOOOOOOOOOOOOOOOOOOOOOOOOOOOOOOOOOOOOOOOOOOOOOOOOOOOOOO",
"OOOOOOOOOOOOOOOOOOOOOOOOOOOOOOOOOOOOOOOOOOOOOOOOOOOOOOOOOOOOOOOOOOOOOOOOOOOOOOOOOOOOOOO",
"OOOOOOOOOOOOOOOOOOOOOOOOOOOOOOOOOOOOOOOOOOOOOOOOOOOOOOOOOOOOOOOOOOOOOOOOOOOOOOOOOOOOOOO",
"OOOOOOOOOOOOOOOOOOOOOOOOOOOOOOOOOOOOOOOOOOOOOOOOOOOOOOOOOOOOOOOOOOOOOOOOOOOOOOOOOOOOOOO",
"OOOOOOOOOOOOOOOOOOOOOOOOOOOOOOOOOOOOOOOOOOOOOOOOOOOOOOOOOOOOOOOOOOOOOOOOOOOOOOOOOOOOOOO",
"OOOOOOOOOOOOOOOOOOOOOOOOOOOOOOOOOOOOOOOOOOOOOOOOOOOOOOOOOOOOOOOOOOOOOOOOOOOOOOOOOOOOOOO"
};
