/* XPM */
static char * collectible_xpm[] = {
"48 48 5 1",
" 	c None",
".	c #06A2E0",
"+	c #00EAFF",
"@	c #96F8FF",
"#	c #FBFFFF",
"                                                ",
"                                                ",
"                                                ",
"                                                ",
"                  ............                  ",
"               ..................               ",
"              ......+..+...+......              ",
"             .....++++++++++++.....             ",
"           ...+..++++++++++++++..+...           ",
"          ...+.++++++++@@++++++++.+...          ",
"         ....+++++++@+@@@@+@+++++++....         ",
"        ....+++++++@#@@##@@#@+++++++....        ",
"        ...++++++@@@@######@@@@++++++...        ",
"       ...+++++@@##############@@+++++...       ",
"      ...+++++@##################@+++++...      ",
"      ..+++++@####################@+++++..      ",
"     ...++++@@####################@@++++...     ",
"     ..++++@@@####################@@@++++..     ",
"    ....++@@@######################@@@++....    ",
"    ...+++@@########################@@+++...    ",
"    ...+++@@########################@@+++...    ",
"    ..++++@##########################@++++..    ",
"    ...++@@@########################@@@++...    ",
"    ...+++@##########################@+++...    ",
"    ...+++@@########################@@+++...    ",
"    ...++@@##########################@@++...    ",
"    ...+++@@########################@@+++...    ",
"    ...++++@########################@++++...    ",
"    ....+++@@######################@@+++....    ",
"    ...++++@@@####################@@@++++...    ",
"     ...++@@########################@@++...     ",
"     ...++++@@####################@@++++...     ",
"      ...+++@@####################@@+++...      ",
"      ..+++++@@#@##############@#@@+++++..      ",
"       ...+++++@@##############@@+++++...       ",
"        ...+++++@+@@#@####@#@@+@+++++...        ",
"        ...+++++@@@@#@####@#@@@@+++++...        ",
"         ...+++++++@@@@@@@@@@+++++++...         ",
"          ...++++++++@++@+@++++++++...          ",
"           ...++++++++++++++++++++...           ",
"             ....++++++++++++++....             ",
"              ......+++..+++......              ",
"               ......+++.++......               ",
"                  ............                  ",
"                                                ",
"                                                ",
"                                                ",
"                                                "};
