/* XPM */
static char * wall_xpm[] = {
"48 48 194 2",
"  	c None",
". 	c #43040B",
"+ 	c #4A0301",
"@ 	c #410102",
"# 	c #F4A67A",
"$ 	c #EC9866",
"% 	c #F49A64",
"& 	c #F4945B",
"* 	c #F38D52",
"= 	c #F38A4C",
"- 	c #F39155",
"; 	c #F49662",
"> 	c #ED935A",
", 	c #4B0C22",
"' 	c #6A1B0B",
") 	c #F8A466",
"! 	c #F2864A",
"~ 	c #F28343",
"{ 	c #F2813D",
"] 	c #F27E3A",
"^ 	c #FABA95",
"/ 	c #FCDAC5",
"( 	c #FCE3D4",
"_ 	c #FCDDCB",
": 	c #FACDB3",
"< 	c #F9B286",
"[ 	c #F28946",
"} 	c #661905",
"| 	c #550A01",
"1 	c #F4A16D",
"2 	c #FDEBE7",
"3 	c #FEFDFD",
"4 	c #FEFAF5",
"5 	c #F5AD83",
"6 	c #340101",
"7 	c #F4995D",
"8 	c #F17A36",
"9 	c #F27428",
"0 	c #ED7125",
"a 	c #EE7A34",
"b 	c #F9C9B7",
"c 	c #FDF1E7",
"d 	c #F17E42",
"e 	c #FBA26D",
"f 	c #F0732D",
"g 	c #ED6A1C",
"h 	c #EB6513",
"i 	c #EA5D0A",
"j 	c #EA5D05",
"k 	c #ED6D23",
"l 	c #FCE5DA",
"m 	c #FEF5F2",
"n 	c #F7C5A8",
"o 	c #F6B996",
"p 	c #FB8A47",
"q 	c #F49D6A",
"r 	c #E65A03",
"s 	c #EB620C",
"t 	c #F5A473",
"u 	c #FBCAAC",
"v 	c #FAC4A4",
"w 	c #F5AA7C",
"x 	c #EE7C3B",
"y 	c #FAD2B8",
"z 	c #F8853B",
"A 	c #EB6816",
"B 	c #FFF7F9",
"C 	c #FCE0CE",
"D 	c #480908",
"E 	c #E95503",
"F 	c #FAA877",
"G 	c #FBD3BB",
"H 	c #FBAB7C",
"I 	c #F7E4D6",
"J 	c #D78B6A",
"K 	c #F5B38B",
"L 	c #FAAD83",
"M 	c #EF7539",
"N 	c #F17434",
"O 	c #EB6103",
"P 	c #CD7750",
"Q 	c #FA9D6A",
"R 	c #F06629",
"S 	c #EC5A1D",
"T 	c #EE732B",
"U 	c #EE8343",
"V 	c #FDF3EC",
"W 	c #F68A57",
"X 	c #B5694B",
"Y 	c #FDECE3",
"Z 	c #F16D32",
"` 	c #EB5315",
" .	c #E94C03",
"..	c #EA5A14",
"+.	c #EE6A2D",
"@.	c #AC5733",
"#.	c #FBD5C2",
"$.	c #F8BAA5",
"%.	c #E65303",
"&.	c #ED642C",
"*.	c #EA4C13",
"=.	c #E94404",
"-.	c #F84938",
";.	c #FBA473",
">.	c #EC5C24",
",.	c #EA4A0C",
"'.	c #E9430C",
").	c #F5543C",
"!.	c #EA1506",
"~.	c #D70C01",
"{.	c #F8291A",
"].	c #DC1302",
"^.	c #EB531B",
"/.	c #E93B0B",
"(.	c #E93B05",
"_.	c #D93314",
":.	c #F52D16",
"<.	c #F63627",
"[.	c #D31302",
"}.	c #DE3608",
"|.	c #D71908",
"1.	c #EA5522",
"2.	c #E9340B",
"3.	c #E93304",
"4.	c #E41202",
"5.	c #C41202",
"6.	c #C91806",
"7.	c #E50D02",
"8.	c #CB1302",
"9.	c #FABD9B",
"0.	c #F06F4F",
"a.	c #E94A26",
"b.	c #E92D03",
"c.	c #E55309",
"d.	c #BA1501",
"e.	c #B90B01",
"f.	c #873B27",
"g.	c #E44404",
"h.	c #712912",
"i.	c #F27748",
"j.	c #E93B11",
"k.	c #E54C04",
"l.	c #EB8B55",
"m.	c #EE823D",
"n.	c #E33C0A",
"o.	c #E33409",
"p.	c #F5A992",
"q.	c #F8BCB0",
"r.	c #EB5736",
"s.	c #EA4511",
"t.	c #E33305",
"u.	c #E33B05",
"v.	c #F79667",
"w.	c #EB5E29",
"x.	c #E32C03",
"y.	c #DD3C0A",
"z.	c #E65D0A",
"A.	c #DE3205",
"B.	c #DA4706",
"C.	c #DC5303",
"D.	c #DE3B04",
"E.	c #F16B2D",
"F.	c #CB0C03",
"G.	c #E54B14",
"H.	c #F31A0C",
"I.	c #EE6C32",
"J.	c #E92C0A",
"K.	c #D62803",
"L.	c #E92A18",
"M.	c #C92903",
"N.	c #E4430B",
"O.	c #DE2C02",
"P.	c #C30D02",
"Q.	c #E54B0A",
"R.	c #D43806",
"S.	c #EE7334",
"T.	c #ED6324",
"U.	c #F17639",
"V.	c #FAB48B",
"W.	c #E34512",
"X.	c #E6521D",
"Y.	c #E75525",
"Z.	c #460813",
"`.	c #FA9B64",
" +	c #ED6735",
".+	c #773425",
"++	c #934930",
"@+	c #3B0001",
"#+	c #F8924C",
"$+	c #EA4D1B",
"%+	c #EC7A46",
"&+	c #ED884A",
"*+	c #E99976",
"=+	c #010101",
"                                                                                                ",
"                                        .   + + + +   . @                                       ",
"                                  # $ % & * * = * - & ; & * > ,                                 ",
"                          @ ' ) ; * ! ~ { { ] ~ ^ / ( _ : < - = [ } @                           ",
"                      . | 1 & ! { ] ] ] ] ] ] - 2 3 3 3 3 4 ( 5 ~ ! [ +                         ",
"                    6 $ 7 = { { ] ] ] 8 9 9 0 a b 4 3 3 3 3 3 c 1 ] * ~ d                       ",
"                    e * ~ ] ] ] 8 f g h i j j j k < l 4 3 3 3 m < { n o * p                     ",
"                @ q = { ] ] ] ] a 9 h i j j j j r s a t o u v w x ] _ 4 y & z @                 ",
"              + q = { ] ] ] ] ] ] ] 8 A j j j j j j j j s s s j i g n B 3 C 1 ] |               ",
"            D e = ] ] ] ] ] { ] ~ ] ~ k j j j j j j j j j j j j E E k 5 l 3 l e { D             ",
"          @ F % { ] ] ] ] ] ] ] ~ ~ ] A j j j j j j j j j j j j j j E i = G 4 l q ]             ",
"        @ F u H x 8 ] ] ~ ] { ~ ~ ~ 9 i j j j j j j j j j j j j j j j j j 8 v m I 7 ! @         ",
"        J K 2 L M N 8 ] ] ~ { ~ ~ a h E j j j j j j j j j j j j j j j j j O a n 4 u = P         ",
"      . F _ 2 Q R S T x { ~ { ] k s E j j j j j j j j j j j j j j j j j j E s U y V F W @       ",
"      X K Y w Z `  ...+.N T k s r j j j j j j j j j j j j j j j j j j j j j E h * l / = @.      ",
"    D t #.$.M S  . .%.E i j j j r r j j j j j j i j j j j O j j j j j j j j j j 0 5 c F = +     ",
"      F G = &.*.=. . .%.E E r j j -.j j %.j i j j j j j j -.j j O j j j j j j E h U / n =       ",
"    % 5 ;.Z >.,.'.=.=. . .%.E r r ).!.~.j j i j j j j j i ).{.].O j j j j j j E j k w I - *     ",
"  D q t d Z ^.'./.(.(.=.=. . ._.:.<.[.i j j i i j i j }.:.:.|.^.j j j j j j j j E A = / Q * .   ",
"  @ 7 ~ N &.*.>.1.2.3.3.(.=. .%.E 4.5.6.j j j i i j j i j 7.8.8.j j j j j j j j j s 8 9.5 * @   ",
"    - 8 N >.0.#.b a.b.3././. .%.c.d.j E j j i j i j j i r e.E j E j j j j j j j j i f Q o *     ",
"  f.* ] N &.$.B m 0.b./././.g.%.c.r j j i j i j j i i i r j j j j j j j j j j j j j 0 = o = h.  ",
"  > = 8 N i.l 3 m 0.2.j.j./.k.%.r j j j j i j i i j j i i j i j j j j j j j j j j E k { < = l.  ",
"  e = 8 Z i.m 3 Y ).2.j.j.(.g.k.E r E i j j j j j j j i j j j i j j j j j j j j j j k m.Q * e   ",
"  e = 8 Z i.2 B $.j.2.j.n.o.g.k.E E E i i j j j j i j j i j j j j j j j j j j j j j k ] = = e   ",
"  7 = 8 Z &.p.q.r.b.2.j.2.o.g.k.%.E E j j j j j j j i j j j j j j j j j j j j j j j k ] { = ;   ",
"  f.= ] Z >.*.s.2.b.2./.n.t.u.g.k.E E r E j i i i j j j j j j j j j j j r j r j j j 0 ~ < v.h.  ",
"    = ] N w.,.(.3.b.2.2.2.x.t.g.g.y.%.E E r j j E j j j j y.r E r r E E r r r r r z.T # V <     ",
"  @ = ] N R ,.(.2.b.2.2.o.x.A.u.B.-.B.%.B.r r E E j E r r ).C.E D.E E %.%.E E r r s N n V H     ",
"  @ * { N E.*./.3.b.2.2.2.x.x.A.o.-.!.F.C.E E E r r E E G.-.H.6.B.c.k.k.k.k.%.E E h ] ^ : 1     ",
"    ~ U N I.S =.3.b.b.2.2.J.x.K.L.H.4.M.k.k.%.%.%.E E k.L.H.4.6.k.g.g.g.N.k. .%.E k ] [ - 1     ",
"      [ ] N &.,.(.3.b.3.2.o.x.O.x.~.M.P.D.g.Q.Q.Q.Q.Q.Q.,.~.R.P.y.n.n.u.u.u.g.k.i T ] { & @     ",
"    + [ { N Z ` '.3.b.b.b.3.x.x.O.M.A.t.}.u.g.N.'.'.N.'.N.M.n.n.}.}.o.A.A.u.g.Q.S N ] [ Q       ",
"      = { 8 S.T.,.(.b.b.b.x.x.x.x.O.O.A.A.D.u.o.u.D.D.N.D.D.o.}.A.A.O.O.A.(.g.` &.U.] - 1       ",
"        { ] N E.S (.3.b.b.x.b.x.x.O.x.x.x.A.t.o.o.o.o.o.}.o.o.A.x.O.O.A.}.n.N.w.I.M ~ $         ",
"        > { 8 N +.` (.3.b.b.b.b.x.x.x.x.O.O.O.x.A.O.A.A.A.O.O.O.O.O.A.}.y.N.^.&.Z ] - V.        ",
"        @ ~ { 8 N &.*.(.3.b.b.b.b.x.x.x.x.O.O.O.O.O.O.O.O.O.O.O.O.o.n.n.W.X.&.Z M = 1 @         ",
"            x ] 8 N &.*.(.3.b.b.b.x.b.x.x.x.x.x.O.O.O.O.O.O.O.o.A.}.n.W.Y.&.I.S.! $ Z.          ",
"              { ] 8 E.&.*.(.3.3.b.b.x.x.J.o.t.x.x.x.x.x.A.t.t.o.y.n.N.Y.&.I.S.d `.              ",
"              h.] ] N f E.S ,.(.(.2.b.x.x.x.3.J.o.o.o.3.o.o.o.o.n.G.>. +I.M ~ ; .+              ",
"                ' ] ] 8 N I.w.*.'./.(.(.o.3.3.3.3.3.3.3.(.(./.'.1.w. +S.U.! ; ++                ",
"                    U ] ] N f +.>.^.,.'./././.(.(././.'.'.*.1.w.&.I.S.x = e @+                  ",
"                    Z.#+~ ] 8 N Z +.&.>.1.^.$+$+*.` 1.1.>.&.&.I.I.U.d - F Z.                    ",
"                        P [ ~ x 8 N S.I.I.+.Z I.&. ++.Z I.I.S.8 ~ * v.X                         ",
"                            %+= ! ~ ] a a 8 U.N N N N 8 x ~ = - Q J                             ",
"                              @   * &+- = = = ! = = * * ; 7 q @ @                               ",
"                                        @ | X *+*+X +                                           ",
"=+                                                                                            =+"};
