/* XPM */
static const char *Moving_Vegeta_NB[] = {
/* columns rows colors chars-per-pixel */
"50 64 17 1 ",
"  c black",
". c #2F323C",
"X c #67393F",
"o c #1C204B",
"O c #273F70",
"+ c #474648",
"@ c #606072",
"# c #966837",
"$ c #D17C53",
"% c #E2A258",
"& c #3C61C1",
"* c #849BA7",
"= c #929BB7",
"- c #F3C8A3",
"; c #EDEFEF",
": c #F0F2F2",
"> c None",
/* pixels */
">>>>>>>>>>>>>>>>>>>>>>>>>>>>>>>>>>>>>>>>>>>>>>>>>>",
">>>>>>>>>>>>>>>>>>>>>>>>>>>>>>>>>>>>>>>>>>>>>>>>>>",
">>>>>>>>>>>>>>>>>>>>>>>>>>>>>>>>>>>>>>>>>>>>>>>>>>",
">>>>>>>>>>>>>>>>>>>>>>>>>>>>>>>>>>>>>>>>>>>>>>>>>>",
">>>>>>>>>>>>>>>>>>>>>>>>>>>>>>>>>>>>>>>>>>>>>>>>>>",
">>>>>>>>>>>>>>>>>>>>>>>>>>>>>>>>>>>>>>>>>>>>>>>>>>",
">>>>>>>>>>>>>>>>>>>>>>>>>>>>>>>>>>>>>>>>>>>>>>>>>>",
">>>>>>>>>>>>>>>>>>>>>>>>>>>>>>>>>>>>>>>>>>>>>>>>>>",
">>>>>>>>>>>>>>>>>>>>>>>>>>>>>>>>>>>>>>>>>>>>>>>>>>",
">>>>>>>>>>>>>>>>>>>>>>>>>>>>>>>>>>>>>>>>>>>>>>>>>>",
">>>>>>>>>>>>>>>>>>>>>> >>>>>>>>>>>>>>>>>>>>>>>>>>>",
">>>>>>>>>>>>>>>>>>>>>>  >>>>> >>>>>>>>>>>>>>>>>>>>",
">>>>>>>>>>>>>>>>>>>>>>     >>  >>>>>>>>>>>>>>>>>>>",
">>>>>>>>>>>>>>>>>>>>>>          >>>>>>>>>>>>>>>>>>",
">>>>>>>>>>>>>>>>>>>>>>      .    >>>>>>>>>>>>>>>>>",
">>>>>>>>>>>>>>>>>>>>>        ..   >>>>>>>>>>>>>>>>",
">>>>>>>>>>>>>>>>>> >>         ..   >>>>>>>>>>>>>>>",
">>>>>>>>>>>>>>>>>>  >          ..   >>>>>>>>>>>>>>",
">>>>>>>>>>>>>>>>>>      .      ...  >>>>>>>>>>>>>>",
">>>>>>>>>>>>>>>>>> .    .       ...  >>>>>>>>>>>>>",
">>>>>>>>>>>>>>>>>> .    ..      ...  >>>>>>>>>>>>>",
">>>>>>>>>>>>>>>>>> ..   ...     ...   >>>>>>>>>>>>",
">>>>>>>>>>>>>>>>>>> .    ...   $-$.   >>>>>>>>>>>>",
">>>>>>>>>>>>>>>>>>>> .   .... $$$--   >>>>>>>>>>>>",
">>>>>>>>>>>>>>>>>     .   ...$$X$$--  >>>>>>>>>>>>",
">>>>>>>>>>>>>>>>           ..$$X$$--  >>>>>>>>>>>>",
">>>>>>>>>>>>>>> &&&          $$  $--- >>>>>>>>>>>>",
">>>>>>>>>>>>>>> &&O&&&        $X* --- >>>>>>>>>>>>",
">>>>>>>>>>>>>>> OOoo&&OO   $X $X:: -$ >>>>>>>>>>>>",
">>>>>>>>>>>>>>>> =OoOO     $$X$$$:+ $ >>>>>>>>>>>>",
">>>>>>>>>>>>>>>> ===@ =;;;  $X$$$----- >>>>>>>>>>>",
">>>>>>>>>>>>>>>>> @@@ ;;;;;; X$$$---$ >>>>>>>>>>>>",
">>>>>>>>>>>>>>>>> == =;;;;;;; X$$--- >>>>>>>>>>>>>",
">>>>>>>>>>>>>>>>>> = %=;;;;;;;  --- >>>>>>>>>>>>>>",
">>>>>>>>>>>>>>>>>>> #%%%;;;;&&&O   >>>>>>>>>>>>>>>",
">>>>>>>>>>>>>>>>>>  %###%%@=&&&O& >>>>>>>>>>>>>>>>",
">>>>>>>>>>>>>>>>>> O;%%%##@@O&&O&&  >>>>>>>   >>>>",
">>>>>>>>>>>>>>>>> O&&;;##===  oooOOO >>>>> ;= >>>>",
">>>>>>>>>>>>>>>>> &&&&&;;   >> OoO&&&  >>> =;; >>>",
">>>>>>>>>>>>>>>> &&&&&&& >>>>>>   O&&;;   =;=  >>>",
">>>>>>>>>>>>>>>> &&&&&&&O  >>>>>>>  ;;;==;;; >>>>>",
">>>>>>>>>>>>>>> &&&&&&&&OOO  >>>>>>>   ==;; >>>>>>",
">>>>>>>>>>>>>  &&&&O&&&OoOOOo >>>>>>>>>    >>>>>>>",
">>>>>>>>>>   oO&&OO&   oOOOOOO >>>>>>>>>>>>>>>>>>>",
">>>>>>>>> ;OOo&&&O& @@=ooooOOO >>>>>>>>>>>>>>>>>>>",
">>>>>>>> ;OOOo&&O  =@@==oooOO >>>>>>>>>>>>>>>>>>>>",
">>>>>>  =;OOoOO  ##=   =     >>>>>>>>>>>>>>>>>>>>>",
">>>>  ==;;OOO  > #  >>>  >>>>>>>>>>>>>>>>>>>>>>>>>",
">>> ;;==;;;  >>>  >>>>>>>>>>>>>>>>>>>>>>>>>>>>>>>>",
">>> ;;==   >>>>>>>>>>>>>>>>>>>>>>>>>>>>>>>>>>>>>>>",
">> ;;;  >>>>>>>>>>>>>>>>>>>>>>>>>>>>>>>>>>>>>>>>>>",
">> %% >>>>>>>>>>>>>>>>>>>>>>>>>>>>>>>>>>>>>>>>>>>>",
">>%% >>>>>>>>>>>>>>>>>>>>>>>>>>>>>>>>>>>>>>>>>>>>>",
">>% >>>>>>>>>>>>>>>>>>>>>>>>>>>>>>>>>>>>>>>>>>>>>>",
">>>>>>>>>>>>>>>>>>>>>>>>>>>>>>>>>>>>>>>>>>>>>>>>>>",
">>>>>>>>>>>>>>>>>>>>>>>>>>>>>>>>>>>>>>>>>>>>>>>>>>",
">>>>>>>>>>>>>>>>>>>>>>>>>>>>>>>>>>>>>>>>>>>>>>>>>>",
">>>>>>>>>>>>>>>>>>>>>>>>>>>>>>>>>>>>>>>>>>>>>>>>>>",
">>>>>>>>>>>>>>>>>>>>>>>>>>>>>>>>>>>>>>>>>>>>>>>>>>",
">>>>>>>>>>>>>>>>>>>>>>>>>>>>>>>>>>>>>>>>>>>>>>>>>>",
">>>>>>>>>>>>>>>>>>>>>>>>>>>>>>>>>>>>>>>>>>>>>>>>>>",
">>>>>>>>>>>>>>>>>>>>>>>>>>>>>>>>>>>>>>>>>>>>>>>>>>",
">>>>>>>>>>>>>>>>>>>>>>>>>>>>>>>>>>>>>>>>>>>>>>>>>>",
">>>>>>>>>>>>>>>>>>>>>>>>>>>>>>>>>>>>>>>>>>>>>>>>>>"
};
