/* XPM */
static const char *moving_back_vegeta_nb[] = {
/* columns rows colors chars-per-pixel */
"54 58 17 1 ",
"  c black",
". c #2F323C",
"X c #67393F",
"o c #1C204B",
"O c #273F70",
"+ c #474648",
"@ c #606072",
"# c #966837",
"$ c #D17C53",
"% c #E2A258",
"& c #3C61C1",
"* c #849BA7",
"= c #929BB7",
"- c #F3C8A3",
"; c #EDEFEF",
": c #F0F2F2",
"> c None",
/* pixels */
">>>>>>>>>>>>>>>>>>>>>>>>>>>>>>>>>>>>>>>>>>>>>>>>>>>>>>",
">>>>>>>>>>>>>>>>>>>>>>>>>>>>>>>>>>>>>>>>>>>>>>>>>>>>>>",
">>>>>>>>>>>>>>>>>>>>>>>>>>>>>>>>>>>>>>>>>>>>>>>>>>>>>>",
">>>>>>>>>>>>>>>>>>>>>>>>>>>>>>>>>>>>>>>>>>>>>>>>>>>>>>",
">>>>>>>>>>>>>>>>>>>>>>>>>>>>>>>>>>>>>>>>>>>>>>>>>>>>>>",
">>>>>>>>>>>>>>>>>>>>>>>>>>>>>>>>>>>>>>>>>>>>>>>>>>>>>>",
">>>>>>>>>>>>>>>>>>>>>>>>>>>>>>>>>>>>>>>>>>>>>>>>>>>>>>",
">>>>>>>>>>>>>>>>>>>>>>>>>>>>>>>>>>>>>>>>>>>>>>>>>>>>>>",
">>>>>>>>>>>>>>>>>>>>>>>>>>>>>>>>>>>>>>>>>>>>>>>>>>>>>>",
">>>>>>>>>>>>>>>>>>>>>>>>>>>>> >>>>>>>>>>>>>>>>>>>>>>>>",
">>>>>>>>>>>>>>>>>>>>>> >>>>>  >>>>>>>>>>>>>>>>>>>>>>>>",
">>>>>>>>>>>>>>>>>>>>>  >>     >>>>>>>>>>>>>>>>>>>>>>>>",
">>>>>>>>>>>>>>>>>>>>          >>>>>>>>>>>>>>>>>>>>>>>>",
">>>>>>>>>>>>>>>>>>>    .      >>>>>>>>>>>>>>>>>>>>>>>>",
">>>>>>>>>>>>>>>>>>   ..        >>>>>>>>>>>>>>>>>>>>>>>",
">>>>>>>>>>>>>>>>>   ..         >> >>>>>>>>>>>>>>>>>>>>",
">>>>>>>>>>>>>>>>   ..          >  >>>>>>>>>>>>>>>>>>>>",
">>>>>>>>>>>>>>>>  ...      .      >>>>>>>>>>>>>>>>>>>>",
">>>>>>>>>>>>>>>  ...       .    . >>>>>>>>>>>>>>>>>>>>",
">>>>>>>>>>>>>>>  ...      ..    . >>>>>>>>>>>>>>>>>>>>",
">>>>>>>>>>>>>>   ...     ...   .. >>>>>>>>>>>>>>>>>>>>",
">>>>>>>>>>>>>>   .$-$   ...    . >>>>>>>>>>>>>>>>>>>>>",
">>>>>>>>>>>>>>   --$$$ ....   . >>>>>>>>>>>>>>>>>>>>>>",
">>>>>>>>>>>>>>  --$$X$$...   .     >>>>>>>>>>>>>>>>>>>",
">>>>>>>>>>>>>>  --$$X$$..           >>>>>>>>>>>>>>>>>>",
">>>>>>>>>>>>>> ---$  $$          &&& >>>>>>>>>>>>>>>>>",
">>>>>>>>>>>>>> --- *X$        &&&O&& >>>>>>>>>>>>>>>>>",
">>>>>>>>>>>>>> $- ::X$ X$   OO&&ooOO >>>>>>>>>>>>>>>>>",
">>>>>>>>>>>>>> $ +:$$$X$$     OOoO= >>>>>>>>>>>>>>>>>>",
">>>>>>>>>>>>> -----$$$X$  ;;;= @=== >>>>>>>>>>>>>>>>>>",
">>>>>>>>>>>>>> $---$$$X ;;;;;; @@@ >>>>>>>>>>>>>>>>>>>",
">>>>>>>>>>>>>>> ---$$X ;;;;;;;= == >>>>>>>>>>>>>>>>>>>",
">>>>>>>>>>>>>>>> ---  ;;;;;;;=% = >>>>>>>>>>>>>>>>>>>>",
">>>>>>>>>>>>>>>>>   O&&&;;;;%%%# >>>>>>>>>>>>>>>>>>>>>",
">>>>>>>>>>>>>>>>>> &O&&&=@%%###%  >>>>>>>>>>>>>>>>>>>>",
">>>>>>   >>>>>>>  &&O&&O@@##%%%;O >>>>>>>>>>>>>>>>>>>>",
">>>>>> =; >>>>> OOOooo  ===##;;&&O >>>>>>>>>>>>>>>>>>>",
">>>>> ;;= >>>  &&&OoO >>   ;;&&&&& >>>>>>>>>>>>>>>>>>>",
">>>>>  =;=   ;;&&O   >>>>>> &&&&&&& >>>>>>>>>>>>>>>>>>",
">>>>>>> ;;;==;;;  >>>>>>>  O&&&&&&& >>>>>>>>>>>>>>>>>>",
">>>>>>>> ;;==   >>>>>>>  OOO&&&&&&&& >>>>>>>>>>>>>>>>>",
">>>>>>>>>    >>>>>>>>> oOOOoO&&&O&&&&  >>>>>>>>>>>>>>>",
">>>>>>>>>>>>>>>>>>>>> OOOOOOo   &OO&&Oo   >>>>>>>>>>>>",
">>>>>>>>>>>>>>>>>>>>> OOOoooo=@@ &O&&&oOO; >>>>>>>>>>>",
">>>>>>>>>>>>>>>>>>>>>> OOooo==@@=  O&&oOOO; >>>>>>>>>>",
">>>>>>>>>>>>>>>>>>>>>>>     =   =##  OOoOO;=  >>>>>>>>",
">>>>>>>>>>>>>>>>>>>>>>>>>>>  >>>  # >  OOO;;==  >>>>>>",
">>>>>>>>>>>>>>>>>>>>>>>>>>>>>>>>>>  >>>  ;;;==;; >>>>>",
">>>>>>>>>>>>>>>>>>>>>>>>>>>>>>>>>>>>>>>>>   ==;; >>>>>",
">>>>>>>>>>>>>>>>>>>>>>>>>>>>>>>>>>>>>>>>>>>>  ;;; >>>>",
">>>>>>>>>>>>>>>>>>>>>>>>>>>>>>>>>>>>>>>>>>>>>> %% >>>>",
">>>>>>>>>>>>>>>>>>>>>>>>>>>>>>>>>>>>>>>>>>>>>>> %%>>>>",
">>>>>>>>>>>>>>>>>>>>>>>>>>>>>>>>>>>>>>>>>>>>>>>> %>>>>",
">>>>>>>>>>>>>>>>>>>>>>>>>>>>>>>>>>>>>>>>>>>>>>>>>>>>>>",
">>>>>>>>>>>>>>>>>>>>>>>>>>>>>>>>>>>>>>>>>>>>>>>>>>>>>>",
">>>>>>>>>>>>>>>>>>>>>>>>>>>>>>>>>>>>>>>>>>>>>>>>>>>>>>",
">>>>>>>>>>>>>>>>>>>>>>>>>>>>>>>>>>>>>>>>>>>>>>>>>>>>>>",
">>>>>>>>>>>>>>>>>>>>>>>>>>>>>>>>>>>>>>>>>>>>>>>>>>>>>>"
};
