/* XPM */
static char * Moving_Vegeta_NB_xpm[] = {
"48 48 16 1",
" 	c None",
".	c #000000",
"+	c #2F323C",
"@	c #D17C53",
"#	c #F3C8A3",
"$	c #67393F",
"%	c #3C61C1",
"&	c #273F70",
"*	c #849BA7",
"=	c #1C204B",
"-	c #F0F2F2",
";	c #929BB7",
">	c #606072",
",	c #EDEFEF",
"'	c #966837",
")	c #E2A258",
"                                                ",
"                                                ",
"                                                ",
"                                                ",
"                                                ",
"                                                ",
"                                                ",
"                     .                          ",
"                     ..     .                   ",
"                     .....  ..                  ",
"                     ......+....                ",
"                    ........++...               ",
"                 .  .........++...              ",
"                 ......+......+++..             ",
"                 .+....+.......+++..            ",
"                 .+....++......+++..            ",
"                  .+....+++...@#@+..            ",
"                   .+...++++.@@@##..            ",
"                .....+...+++@@$@@##.            ",
"              .%%%..........@@..@###            ",
"              .%%&%%%........@$*.###            ",
"              .&&==%%&&...@$.@$--.#@            ",
"               .;;;>.;,,,..@$@@@####.           ",
"                .>>>.,,,,,,.$@@@###@            ",
"                .;;.;,,,,,,,.$@@###.            ",
"                  .'))),,,,%%%&...              ",
"                 ..)'''))>;%%%&%.               ",
"                 .&,)))''>>&%%&%%..      ...    ",
"                .%%%%%,,...  .&=&%%%.   .;,,.   ",
"               .%%%%%%%.      ...&%%,...;,;..   ",
"               .%%%%%%%&..       ..,,;;,,,.     ",
"            ..%%%%&%%%&=&&&=.        ....       ",
"          ..=&%%&&%...=&&&&&&.                  ",
"         .,&=%%%&%.>>;====&&&.                  ",
"      ..;,&&&&..'';...;.....                    ",
"    ..;;,,&&.. .'..   ..                        ",
"   .,,;;,,,.   ..                               ",
"  .,,,..                                        ",
"  .)).                                          ",
"  )).                                           ",
"                                                ",
"                                                ",
"                                                ",
"                                                ",
"                                                ",
"                                                ",
"                                                ",
"                                                "};
