/* XPM */
static char * moving_back_vegeta_nb_xpm[] = {
"48 48 16 1",
" 	c None",
".	c #000000",
"+	c #2F323C",
"@	c #D17C53",
"#	c #F3C8A3",
"$	c #67393F",
"%	c #3C61C1",
"&	c #F0F2F2",
"*	c #273F70",
"=	c #1C204B",
"-	c #474648",
";	c #929BB7",
">	c #EDEFEF",
",	c #606072",
"'	c #E2A258",
")	c #966837",
"                                                ",
"                                                ",
"                                                ",
"                                                ",
"                                                ",
"                                                ",
"                                                ",
"                          .                     ",
"                         ..                     ",
"                   .  .....                     ",
"                  .........                     ",
"                 ...+......                     ",
"               ...++........ .                  ",
"              ...++...........                  ",
"              ..+++.....+.....                  ",
"             ..+++......+...+.                  ",
"             ..+++.....++...+.                  ",
"            ...+@#@..+++.....                   ",
"            ...##@@@++++...+                    ",
"            ..##@@$@+++...+....                 ",
"            ..##@@$@++..........                ",
"            .###@..@.........%%%.               ",
"            .@#.&&$@$@...**%==**.               ",
"            .@.-&@@@@@.....*=*;.                ",
"            #####@@@@..>>>;.;;;.                ",
"            .@###@@@.>>>>>>.,,.                 ",
"              .###..>>>>>>;';.                  ",
"               ...*%%>>>>'''.                   ",
"                .%*%%;,'')))..                  ",
"     ...      ..%%*%*,,))'''*.                  ",
"     .;>.    .***===.;;;))>>%*.                 ",
"    ..;>;...>%%*...     .%%%%%%.                ",
"      .>>>;;>>..      ..*%%%%%%.                ",
"       .>>;;..      ..***%%%%%%%.               ",
"        ....        =***=*%%*%%%%..             ",
"                   .*****=..%**%%*=..           ",
"                    **===;;,;..*%%=**>.         ",
"                    .....;..;))..**=*>;..       ",
"                        ..  ..). ..**>>;;..     ",
"                              ..   .>>>;;>>.    ",
"                                    ...;;>>.    ",
"                                         .''    ",
"                                          .'    ",
"                                           .    ",
"                                                ",
"                                                ",
"                                                ",
"                                                "};
