/* XPM */
static char * saiyan_pod_exit_xpm[] = {
"48 48 104 2",
"  	c None",
". 	c #52645B",
"+ 	c #9BBBAC",
"@ 	c #93B6A6",
"# 	c #A4C2B4",
"$ 	c #ABC7BB",
"% 	c #010300",
"& 	c #95B9A9",
"* 	c #A2BEB2",
"= 	c #AAC8BA",
"- 	c #94B7A8",
"; 	c #91A69C",
"> 	c #94B8A7",
", 	c #1B2621",
"' 	c #A6C6B9",
") 	c #658175",
"! 	c #333E39",
"~ 	c #A9C3B6",
"{ 	c #799287",
"] 	c #AAC6BA",
"^ 	c #000A03",
"/ 	c #86A999",
"( 	c #759386",
"_ 	c #93ADA1",
": 	c #2D4136",
"< 	c #65756C",
"[ 	c #769488",
"} 	c #43544C",
"| 	c #7D998D",
"1 	c #9EC1B2",
"2 	c #4D6359",
"3 	c #455B51",
"4 	c #33493E",
"5 	c #6D8A7D",
"6 	c #9AB5A9",
"7 	c #09140E",
"8 	c #4B6156",
"9 	c #1C3026",
"0 	c #120106",
"a 	c #2E1A23",
"b 	c #331A24",
"c 	c #140109",
"d 	c #0F0108",
"e 	c #6D7C77",
"f 	c #93AA9E",
"g 	c #391B26",
"h 	c #24000E",
"i 	c #3B1C28",
"j 	c #1C010B",
"k 	c #1A0007",
"l 	c #2A3630",
"m 	c #84A395",
"n 	c #7B958A",
"o 	c #8BA196",
"p 	c #331622",
"q 	c #2A0112",
"r 	c #29000F",
"s 	c #260111",
"t 	c #748D82",
"u 	c #24332C",
"v 	c #0C1B13",
"w 	c #85A698",
"x 	c #2D3B36",
"y 	c #680429",
"z 	c #330213",
"A 	c #121E19",
"B 	c #63092A",
"C 	c #650529",
"D 	c #5C0929",
"E 	c #4E0922",
"F 	c #5C7266",
"G 	c #630427",
"H 	c #60766B",
"I 	c #5D0629",
"J 	c #9EBEB0",
"K 	c #63796E",
"L 	c #5B0425",
"M 	c #4B021D",
"N 	c #1C2B24",
"O 	c #43021B",
"P 	c #54695F",
"Q 	c #829A8E",
"R 	c #8CA499",
"S 	c #360419",
"T 	c #3C0319",
"U 	c #680527",
"V 	c #0D0104",
"W 	c #5B0927",
"X 	c #779989",
"Y 	c #6F9182",
"Z 	c #657C71",
"` 	c #51031F",
" .	c #540422",
"..	c #7E9C90",
"+.	c #5D766B",
"@.	c #4A5C53",
"#.	c #212C25",
"$.	c #99B8A6",
"%.	c #5B6C64",
"&.	c #5E796D",
"*.	c #203127",
"=.	c #304137",
"-.	c #839B91",
";.	c #6A7C74",
"                                                                                                ",
"                                                                                                ",
"                                                                                                ",
"                                                                                                ",
"                                                                                                ",
"                                                                                                ",
"                                                                                                ",
"                                      . + @ # $ % # & * %                                       ",
"                                & = $ $ $ $ $ $ $ - ; > > & @ ,                                 ",
"                            & $ $ $ $ ' $ $ = > > > & ) > > > > & !                             ",
"                        * $ ~ $ $ $ $ $ $ @ > > > > > > > % > > > { {                           ",
"                      @ ] $ $ $ $ $ $ $ & > > > > > > > > > & ^ & / { (                         ",
"                    + $ ~ @ & * _ * > & > > > > > > > > > > > > > : { ( { <                     ",
"                  > $ > % & = $ $ # $ & % & > > > > > > > > > > > > [ } | (                     ",
"                @ - % @ 1 & > > > > > > > > _ @ > > > > > > > > > > { [ [ { %                   ",
"              2 > 3 + > > @ | 4 5 + > > > > > > 6 > > > > > > > > > { { ( { ( [                 ",
"              & # > > % # * 7 % } & > 8 @ > > > > 3 @ > > > > > > > { { { { { { <               ",
"            & 9 > * + % 0 a b b b c d e @ f > > > > 6 > > > > > > > { { ( { { { [               ",
"            7 > + @ c b g h h h i h j k % @ l > > > @ m > > > > > > { { { { ( { { n             ",
"          o > @ @ k p h q q q q q r s h j % @ & > > > ^ > > > > > > { { { ( { { ( t             ",
"          u & v c h q q q q q q q q q q h j % + @ > > @ @ > > > > > ( ( ( { { { ( {             ",
"          > - 6 j q q q q q q q q q q q q h k & * > > > f > > > > w { { ( ( { { { ( x           ",
"          @ % d h q q q q y y y y q q q q z h A , > > > 9 > > > > { { { { { { { { { n           ",
"        % > _ j q q q q y y y y y y q q q B h 0 & > > > & > > > & { { { { { { ( ( ( {           ",
"          > # h h q q y y y y y y y q q y C s j > > > > > @ > > { ( ( ( ( { { ( { { t           ",
"          > * h D q E y y y y y y y q C y C s j @ > > > > > > & { { ( ( { ( ( { { { F           ",
"        % & # h G q y y y y y y y y y y y B s j @ > > > > @ > ( { { { { { ( ( { { { H           ",
"          @ < h I q y y y y y y y y y y y q h j J > @ > @ + ( ( ( { { { ( { { ( { { K           ",
"          > t 0 L q y y y y y y y y y y C r M 7 % > > > > ( { { { ( ( { { { { { { F N           ",
"          > - _ E q C C y y y y y y y y q L O & P > > @ Q { { { { { ( ( ( ( { ( n <             ",
"          R @ F S S T U y y y y y y y r G M V : > > m { % { ( ( { { { { { ( { { H H             ",
"            > @ _ T h I C C y y y C W L M q & @ X { { { Y { { { { { { ( { ( { n H Z             ",
"            @ > - f q T `  .L L L  .M T k ..{ { ( ( { % ( { { ( ( { { { { { { H +.              ",
"              > > > ^ % q z z S T S r , @.{ ( { ( ( ( { ( ( ( { ( ( { { ( ( H H #.              ",
"              F > > > $.^ o % % % 6 %.| { ( ( { { ( | { { { { { ( ( { { ( H H <                 ",
"                @ > > > > & { ( { { { { ( { { { [ { ( { { { ( { { { { ( &.H H                   ",
"                  { Y Y ( ( { { { { { ( ( { { *.{ { { { { ( ( { { { { H H H %                   ",
"                    { ( { { { ( { { { { ( [ =.{ { { ( ( { ( { { { t H H +.                      ",
"                      [ ( { { { { { { { { | { ( ( { { ( ( ( { { +.H H H %                       ",
"                        -.( { ( ( { { (   { ( { { ( { { { { &.H H K <                           ",
"                            ( { ( ( ( [ { ( ( { { { { ( H H H H &.%                             ",
"                                | { ( { | { ( { { Z +.F H H < %                                 ",
"                                      } Z   < +.2 F H ;.%                                       ",
"                                                                                                ",
"                                                                                                ",
"                                                                                                ",
"                                                                                                ",
"                                                                                                "};
