/* XPM */
static char * Standing_Vegeta_NB_xpm[] = {
"48 48 17 1",
" 	c None",
".	c #000000",
"+	c #2E323D",
"@	c #D17C53",
"#	c #F3C8A3",
"$	c #67393F",
"%	c #839BA8",
"&	c #F0F2F2",
"*	c #474648",
"=	c #273F70",
"-	c #E2A258",
";	c #3C61C1",
">	c #929BB7",
",	c #EDEFEF",
"'	c #1C204B",
")	c #606072",
"!	c #966837",
"                                                ",
"                                                ",
"             ..                                 ",
"             .....        ..                    ",
"            ..........    ....                  ",
"            ............. .....                 ",
"          ..........++...........  .            ",
"     ..   ............+..........  .            ",
"     ..........++......+++.........+..          ",
"     ..+.......++........+++.......+..          ",
"     ..+.......+++.......+++++.....+..          ",
"     ..+++.....+++++......++++.....+..          ",
"       .++.......+++++....+++++....+..          ",
"        ....+.....++++@@@###+++.......          ",
"   .................@@@@@@####+....@..          ",
"     ...............@@@$$@@@###....#..          ",
"       .............@@@$$@@@#####..#..          ",
"        .........@..@@@$$...#######@..          ",
"          .......@@@$$@@@$%%..#####.            ",
"               .......@@@@##&&*..##.            ",
"                    ..$@@@#######..             ",
"                  ....=$$#####@..               ",
"               ...----===$$$$$......            ",
"             ..;;;;;...========----;..          ",
"             ..===..>>,,,...>>>,,..===..        ",
"               ...    ===',,,,>....=;;;;.       ",
"                  ....;;;;,,,,.))>>;;;;;.       ",
"                    ...;;;....)))>>.....        ",
"                    ..>...!!!!.....             ",
"                  ..''=========''..             ",
"                  ..;;;========''..             ",
"                 .;;;;;;;=====';;;;.            ",
"                 .;;;;;;;''''';;;;;.            ",
"                 .;;;;;;;.....;;;==.            ",
"                 .;;===;;.  ..;;;==.            ",
"             ..===;;;;.       .==;;;..          ",
"             ..===''..        .==;;=..          ",
"             ..=='==..      ...==''.            ",
"            .,,=====..      ..>==''.            ",
"            .,,,,,..        ..>>>>>.            ",
"            .>>>>.            .)))).            ",
"          ..,,,..              ..>>...          ",
"          ..,,,..              ..>>>!!..        ",
"        ..--,..                ..>>>!!!!.       ",
"        ..---..                                 ",
"                                                ",
"                                                ",
"                                                "};
