/* XPM */
static const char *VegetaSSJ_standing_back[] = {
/* columns rows colors chars-per-pixel */
"42 58 19 1 ",
"  c black",
". c #72313C",
"X c #312859",
"o c #434F72",
"O c #B76E14",
"+ c #A54C26",
"@ c #CE7F5C",
"# c #F9AE00",
"$ c #EFB33A",
"% c #3056AD",
"& c #4FB59D",
"* c #2E9EF4",
"= c #839BA8",
"- c #929BB7",
"; c #F7D8C2",
": c #EDEFEF",
"> c #FFFAED",
", c #F0F2F2",
"< c None",
/* pixels */
"<<<<<<<<<<<<<<<<<<<<<<<<<<<<<<<<<<<<<<<<<<",
"<<<<<<<<<<<<<<<<<<<<<<<<<<<<<<<<<<<<<<<<<<",
"<<<<<<<<<<<<<<<<<<<<<<<<<<<<<<<<<<<<<<<<<<",
"<<<<<<<<<<<<<<<<<<<<<<<<<<<<<<<<<<<<<<<<<<",
"<<<<<<<<<<<<<<<<<<<<<<<<<<<<<<<<<<<<<<<<<<",
"<<<<<<<<<<<<<<<<<<<<<<<<<<<<< <<<<<<<<<<<<",
"<<<<<<<<<<<<<<<<<<<<<<<<<<<<< <<<<<<<<<<<<",
"<<<<<<<<<<<<<<<<<<<<<<< <<<< > <<<<<<<<<<<",
"<<<<<<<<<<<<<<<<<<<<<<  <<  >># <<<<<<<<<<",
"<<<<<<<<<<<<<<<<< <<< > < >>>>> <<<<<<<<<<",
"<<<<<<<<<<<<<<<<< << >#  >#>>>># <<<<<<<<<",
"<<<<<<<<<<<<<<<< #  >#>>>#>>>>+# <<<<<<<<<",
"<<<<<<<<<<<<<<< ##+##>>##>>>>#+# << <<<<<<",
"<<<<<<<<<<<<<<< #+#>>>##>>###>+# <  <<<<<<",
"<<<<<<<<<<<<<< #+#>>>##>>#>>>>+#  > <<<<<<",
"<<<<<<<<<<<<<< #+>>>###>#>>>#>+##>> <<<<<<",
"<<<<<<<<<<<<<< #+>>>###>>>>#>+##>>> <<<<<<",
"<<<<<<<<<<<<<< #@>>#@@@@###>+>>>>#> <<<<<<",
"<<<<<<<<<<<<<< #;>#;;@.@@#>+>>>>#> <<<<<<<",
"<<<<<<<<<<<<<< ;;>;;++.@@#+>>>##>+ <<<<<<<",
"<<<<<<<<<<<<<< ;;;;+=.@@#######>+ <<<<<<<<",
"<<<<<<<<<<<<< @;@;+,,.@@   ###+++ <<<<<<<<",
"<<<<<<<<<<<<< ;;@+&,;@@@.; #######  <<<<<<",
"<<<<<<<<<<<<< ;;,,,;@@@.@; +####  <<<<<<<<",
"<<<<<<<<<<<<< ;;,==;@@@.;@ +++  <<<<<<<<<<",
"<<<<<<<<<<<<< @;;,,;@@..  ### <<<<<<<<<<<<",
"<<<<<<<<<<<<<< @;;;;@.@ ++     <<<<<<<<<<<",
"<<<<<<<<<<<<<<< @;;@.@%    <<<<<<<<<<<<<<<",
"<<<<<<<<<<<<   $....%%$$$** <<<<<<<<<<<<<<",
"<<<<<<<<<<< *OO%*X%**OOO*%% <<<<<<<<<<<<<<",
"<<<<<<<<<<< *$$*X***-$$$**% <<<<<<<<<<<<<<",
"<<<<<<<<<<< % ::-:::::::**XX <<<<<<<<<<<<<",
"<<<<<<<<<< %* ::-::::::-%%** << <<<<<<<<<<",
"<<<<<  <<< ** ::-:::oooo %**:  : <<<<<<<<<",
"<<<   : < %%%X O$$$o--- < %:--o-- <<<<<<<<",
"<<< :-:  ::*%  OOOOO-- <<< :-o::-: <<<<<<<",
"<<< ::oo--:  < $$$$O: <<<<< oo::-: <<<<<<<",
"<<< ---o-- <<< :::::- <<<<<< :-:: <<<<<<<<",
"<<<< ::-  <<< X****** <<<<<<< :: <<<<<<<<<",
"<<<<<   <<<<< %******% <<<<<<<  <<<<<<<<<<",
"<<<<<<<<<<<<< *%****** <<<<<<<<<<<<<<<<<<<",
"<<<<<<<<<<<< ***%*%**** <<<<<<<<<<<<<<<<<<",
"<<<<<<<<<<<< ****%%**%* <<<<<<<<<<<<<<<<<<",
"<<<<<<<<<<<< %***  ***%% <<<<<<<<<<<<<<<<<",
"<<<<<<<<<<< %*%% << **** <<<<<<<<<<<<<<<<<",
"<<<<<<<<<<< **%% <<< X** <<<<<<<<<<<<<<<<<",
"<<<<<<<<<<< XX% <<<<< XX% <<<<<<<<<<<<<<<<",
"<<<<<<<<<< %X% <<<<<< %X% <<<<<<<<<<<<<<<<",
"<<<<<<<<<< -%% <<<<<<< %%: <<<<<<<<<<<<<<<",
"<<<<<<<<<< --- <<<<<<< ::: <<<<<<<<<<<<<<<",
"<<<<<<<<<< ooo <<<<<<<< ::: <<<<<<<<<<<<<<",
"<<<<<<<<<< oo <<<<<<<<< :-- <<<<<<<<<<<<<<",
"<<<<<<<<<  - <<<<<<<<<<< -- <<<<<<<<<<<<<<",
"<<<<<<<< O-- <<<<<<<<<<<< :: <<<<<<<<<<<<<",
"<<<<<<< OO-- <<<<<<<<<<<< :$ <<<<<<<<<<<<<",
"<<<<<<<<<<<<<<<<<<<<<<<<<< $$ <<<<<<<<<<<<",
"<<<<<<<<<<<<<<<<<<<<<<<<<<<<<<<<<<<<<<<<<<",
"<<<<<<<<<<<<<<<<<<<<<<<<<<<<<<<<<<<<<<<<<<"
};
