/* XPM */
static const char *Vegeta_moving_DOWN[] = {
/* columns rows colors chars-per-pixel */
"30 62 17 1 ",
"  c black",
". c #2E323D",
"X c #67393F",
"o c #1C204B",
"O c #273F70",
"+ c #474648",
"@ c #606072",
"# c #966837",
"$ c #D17C53",
"% c #E2A258",
"& c #3C61C1",
"* c #929BB7",
"= c #F3C8A3",
"- c #EDEFEF",
"; c gray95",
": c white",
"> c None",
/* pixels */
">>>>>>>>>>>>>>>>>>>>>>>>>>>>>>",
">>>>>>>>>>>>>>>>>>>>>>>>>>>>>>",
">>>>>>>>>>>> >>>>>>>>>>>>>>>>>",
">>>>>>>>>>>  >>>>>>>>>>>>>>>>>",
">>>>>>>>>>   >>>>>>>>>>>>>>>>>",
">>>>>>>>>    >>>> >>>>>>>>>>>>",
">>>>>>>>    . >>>  >>>>>>>>>>>",
">>>>>>>     . >>>  >>>>>>>>>>>",
">>>>>>>      . >  . > >>>>>>>>",
">>>> >   --  .    . > >>>>>>>>",
">>>> >  --*-- .   ..    >>>>>>",
">>>     -**@@ ..   . --* >>>>>",
">>> .   -*@@* ..   . -*-- >>>>",
">>> .   ---   ...  . **-* >>>>",
">>> .. *-- .   ..    -**-* >>>",
">>> .. -** .   ...     @@* >>>",
">>>> . -- ...   ..      ** >>>",
">>>>> &&&  ..   ..      -- >>>",
">>    &&O    =$ ..      &O >>>",
">>>  O&&    $$=$ .  $   &Oo >>",
">>>> &&&   $$$==$   =   &O& >>",
">>>> &&o   $X$====  =  &&O& >>",
">>>> &OoO  $X$==== ==  OOO >>>",
">>>>> ooOO $X  $====$ oooO >>>",
">>>>> OOOO $$X* ==== oOOo >>>>",
">>>>>> OO&OX$X;; =$= &OO >>>>>",
">>>>>> oo&&%X$$;+ $ &&O >>>>>>",
">>>>>>> &&&##X==== #&& >>>>>>>",
">>>>>>> O&&%%OXX  %%oo >>>>>>>",
">>>>>>> &OO*--OOOO--O >>>>>>>>",
">>>>>>>> &O-----*---* >>>>>>>>",
">>>>>>>> *-------*-- >>>>>>>>>",
">>>>>>>>> @@@@---*-- >>>>>>>>>",
">>>>>>>>> @--*@%%#* >>>>>>>>>>",
">>>>>>>>>> **-#### >>>>>>>>>>>",
">>>>>>>>>>> -*#%%% >>>>>>>>>>>",
">>>>>>>>>>> &----- >>>>>>>>>>>",
">>>>>>>>>> &&&&&&&O >>>>>>>>>>",
">>>>>>>>>> &&&O&&&O >>>>>>>>>>",
">>>>>>>>>> &&O&&&&O& >>>>>>>>>",
">>>>>>>>>> OOO&&& && >>>>>>>>>",
">>>>>>>>>>> oO&&O& & >>>>>>>>>",
">>>>>>>>>>>> O&&&O& O >>>>>>>>",
">>>>>>>>>>>>> &OO&O O >>>>>>>>",
">>>>>>>>>>>>> &OO&& O >>>>>>>>",
">>>>>>>>>>>>> -&O&& O >>>>>>>>",
">>>>>>>>>>>> @*--  oo >>>>>>>>",
">>>>>>>>>>>> @** OoO >>>>>>>>>",
">>>>>>>>>>> -@* *OO >>>>>>>>>>",
">>>>>>>>>>> --@ *** >>>>>>>>>>",
">>>>>>>>>>> --* ** >>>>>>>>>>>",
">>>>>>>>>>>> -%% @ >>>>>>>>>>>",
">>>>>>>>>>>>>     >>>>>>>>>>>>",
">>>>>>>>>>>>> ** >>>>>>>>>>>>>",
">>>>>>>>>>>> :: >>>>>>>>>>>>>>",
">>>>>>>>>>>> %% >>>>>>>>>>>>>>",
">>>>>>>>>>>> % >>>>>>>>>>>>>>>",
">>>>>>>>>>>>  >>>>>>>>>>>>>>>>",
">>>>>>>>>>>>>>>>>>>>>>>>>>>>>>",
">>>>>>>>>>>>>>>>>>>>>>>>>>>>>>",
">>>>>>>>>>>>>>>>>>>>>>>>>>>>>>",
">>>>>>>>>>>>>>>>>>>>>>>>>>>>>>"
};
