/* XPM */
static const char *Vegeta_transf_ph1[] = {
/* columns rows colors chars-per-pixel */
"67 82 21 1 ",
"  c black",
". c #2E323D",
"X c #4B1F35",
"o c #67393F",
"O c #1C204B",
"+ c #273F70",
"@ c #474648",
"# c #606072",
"$ c #966837",
"% c #F33C41",
"& c #D17C53",
"* c #E2A258",
"= c #3C61C1",
"- c #849BA7",
"; c #929BB7",
": c #F3C8A3",
"> c #BDE9F9",
", c #EDEFEF",
"< c #F0F2F2",
"1 c white",
"2 c None",
/* pixels */
"2222222222222222222222222222222222222222222222222222222222222222222",
"2222222222222222222222222222222222222222222222222222222222222222222",
"2222222222222222222222222222222222222222222222222222222222222222222",
"222222222222222222222222222222>222>22222222222222222222222222222222",
"222222222222222222222222222222>222>22222222222222222222222222222222",
"222222222222222222222222222222>222>22222222222222222222222222222222",
"222222222222222222222222222222>222>22222222222222222222222222222222",
"222222222222222222222222222222>222>22222222222222222222222222222222",
"2222222222222222222222222>222>>>2>>>222>222222222222222222222222222",
"2222222222222222222222222>222>>>2>>>222>222222222222222222222222222",
"2222222222222222222222222>222>>>2>>>222>222222222222222222222222222",
"2222222222222222>22222222>222>>>2>>>222>22222222>222222222222222222",
"2222222222222222>22222222>22>>>>>>>>>22>22222222>222222222222222222",
"2222222222222222>2222222>>22>>>>>>>>>22>>2222222>222222222222222222",
"2222222222222222>2222222>>22>>1>>>1>>22>>2222222>222222222222222222",
"2222222222222222>>222222>>22>>1>>>1>>22>>222222>>222222222222222222",
"2222222222222222>>222222>>2>>>1>>>1>>>2>>222222>>222222222222222222",
"2222222222222222>>222222>>2>>>1>>>1>>>2>>222222>>222222222222222222",
"2222222222222222>>222222>>2>>111>111>>2>>222222>>222222222222222222",
"2222222222222222>>>22222>>2>>111>111>>2>>22222>>>222222222222222222",
"2222222222222222>>>22222>>2>>111>111>>2>>22222>>>222222222222222222",
"2222222222222222>>>2222>>>>>>111>111>>>>>>2222>>>222222222222222222",
"2222222222222222>>>2222>>>>>>111>111>>>>>>2222>>>222222222222222222",
"2222222222222222>1>2222>>>>>111111111>>>>>2222>1>222222222222222222",
"2222222222222222>1>2222>>>>>111111111>>>>>2222>1>222222222222222222",
"222222222222222>>1>2222>>>>>111111111>>>>>2222>1>>22222222222222222",
"222222222222222>>1>>222>>>>>111111111>>>>>222>>1>>22222222222222222",
"222222222222222>>11>22>>>>>>111111111>>>>>>22>11>>22222222222222222",
"222222222222222>>11>22>>>>>>111111111>>>>>>22>11>>22222222222222222",
"222222222222222>>11>>2>1>>>11111111111>>>1>2>>11>>22222222222222222",
"222>22222222222>>111>2>1>>>11111111111>>>1>2>111>>22222222222>22222",
"222>22222222222>>111>>>1>>>11111111111>>>1>>>111>>22222222222>22222",
"222>22222222222>>111>>>11>1111111111111>11>>>111>>22222222222>22222",
"222>>2222222222>>1111>>11>11111 1111111>11>>1111>>2222222222>>22222",
"222>>2222222222>>1111>>1111111  1111111111>>1111>>2222222222>>22222",
"222>>>222222222>>1111>>111111   1111111111>>1111>>222222222>>>22222",
"2222>>22222>222>>1111>111111    1111 111111>1111>>222>22222>>222222",
"2222>>>2222>222>>1111111111    . 111  1111111111>>222>2222>>>222222",
"2222>>>2222>>22>>111111111     . 111  1111111111>>22>>2222>>>222222",
"2222>>>>222>>22>>111111111      . 1  . 1 1111111>>22>>222>>>>222222",
"2222>>>>222>>>2>>111111 1       .    . 1 1111111>>2>>>222>>>>222222",
"22222>>1>22>>>2>>111111 1  .    ..   . 1  111111>>2>>>22>1>>2222222",
"22222>>1>22>>>>>>11111      .    ..     . 111111>>>>>>22>1>>2222222",
"22222>>1>>2>>1>>>11111 .    ..   ..     .  11111>>>1>>2>>1>>2222222",
">2222>>>1>>>>1>>>11111 .    ..    ..    .  11111>>>1>>>>1>>>2222>22",
">22222>>11>>>11>>11111 ..    ..   ...   .   1111>>11>>>11>>22222>22",
">>2222>>11>>>11>>11111  .    ..    ..       1111>>11>>>11>>2222>>22",
"2>>222>>111>>11>>111111 ..   ...            1111>>11>>111>>222>>222",
"2>>222>>1111>111>1111111 .    ..&::        11111>111>1111>>222>>222",
"2>>>222>11111111>1111     .    &::::    :  11111>11111111>222>>>222",
"22>>>22>>1111111111111 ..      :&::&&   & 11111111111111>>22>>>2222",
"22>>>>2>>11111111111111  .     :&::&&&  & 11111111111111>>2>>>>2222",
"222>>>22>11111111111111   .    &&  :&&& & 11111111111111>22>>>22222",
"222>>>>2>111111111111111   . : &&o- :&&&: 11111111111111>2>>>>22222",
"2222>>>>>>111111111111111    :o&&o<< :&&: 1111111111111>>>>>>222222",
"2222>>1>>>1111111111111111   ::o:::<@ :: 11111111111111>>>1>>222222",
"22222>>1>>111111111  1111  **  o:::<<<:: 11111111111111>>1>>2222222",
"222222>11>11111111  , 11 =++$$++o::XXX:   111   1111111>11>22222222",
"222222>>1>1111111 ,#, 11 +==**+++o:%%: $+ 11 ,,  11111111>>22222222",
"222222>>11111111 ,;## 1 +O==,,,;++oo  $$= 11 #;;, 1111111>>22222222",
"22>2222>>1111111 ;,,;,  ==O+,,,,,,,;,,,O== 1 #,,, 111111>>2222>2222",
"222>222>>11111111 ,;;, +== O;,,,,,,;,,;O==  #,;,  111111>>222>22222",
"222>>222>>11111111 ,,,;,= 1 ##;,,,;,,, +O+;;#,,; 111111>>222>>22222",
"2222>>222>111111111 #;;, 111 ;#**$$$  1  =;;##  1111111>222>>222222",
"2222>>>>2>>111111111 ,, 1111 ,;$$$** 1111 ;;  11111111>>2>>>>222222",
"22222>>>>>>1111111111  11111 +,,,,,,  1111  1111111111>>>>>>2222222",
"22222>>>>>>111111111111111  ==++++++++   1111111111111>>>>>>2222222",
"222222>>>1>>1111111111111 +=====++++====O  1111111111>>1>>>22222222",
"2>22222>>>11111111111111 O+=====++++======= 11111111111>>>22222>222",
"22>>222>>>>111111111111 =======++++======== 1111111111>>>>222>>2222",
"222>>>22>>>111111111111 =====        +===++ 1111111111>>>22>>>22222",
"2222>>>>>>>>1111111111 ++OO  22222222   +OO+ 11111111>>>>>>>>222222",
"222222>>>>>>>111111111 +O+ 222222222222 ++O+ 1111111>>>>>>>22222222",
"2222222>>>>>>>1111111 ++++ 2222222222222 ++; 111111>>>>>>>222222222",
"222222222>>>11111111 ,,++ 22222222222222 ;;; 11111111>>>22222222222",
"22222222222>>1111111 ;;, 2222222222222222 ## 1111111>>2222222222222",
"222222>>>>>>>>111111 ;;, 22222222222222222 #; 11111>>>>>>>>22222222",
"22222222>>>>>>>11111 ;; 2222222222222222222 , 1111>>>>>>>2222222222",
"2222222222>>>>>>>11 ,, 22222222222222222222 ,, 1>>>>>>>222222222222",
"222222222222>>>>>>1 *, 22222222222222222222 ,$$ >>>>>22222222222222",
"222222222222222>>> ** >>>222222222222222>>>>>>>>>>22222222222222222",
"2222222222222222222222222222222222222222222222222222222222222222222"
};
