/* XPM */
static const char *Vegeta_transf_ph2[] = {
/* columns rows colors chars-per-pixel */
"52 58 22 1 ",
"  c #4B1F35",
". c #72313C",
"X c #384063",
"o c #434F72",
"O c #F33C41",
"+ c #CE7F5C",
"@ c #EFB33A",
"# c #FFC72D",
"$ c #E2A258",
"% c #3056AD",
"& c #4FB59D",
"* c #2E9EF4",
"= c #819C9E",
"- c #929BB7",
"; c #FFFABF",
": c #F7D8C2",
"> c #FFD4CF",
", c #EDEFEF",
"< c #FFFDEF",
"1 c #F0F2F2",
"2 c white",
"3 c None",
/* pixels */
"3333333333333333333333333333333333333333333333333333",
"3333333333333333333333333333333333333333333333333333",
"33333333333333333;3333333333333333333333333333333333",
"3333333333333333;33333333333333333333333333333333333",
"333333333333333;33333333333333333#333333333333333333",
"33333333333333;3333333333333333333#33333333333333333",
"3333333333333;333;33333333333333333#;333333333333333",
"333333333333;;33;3333333333333333333#;33333333333333",
"33333333333;;33;33333333333333333333##;3333333333333",
"3333333333;;;3;3333333333333333333333##;333333333333",
"333333333;;;;;#33;3333333333333333333##;;33333333333",
"33333333;;;;;#33;333333333333333333333##;;3333333333",
"3333333;;;;;##3;3333333333333333333333##;;;333333333",
"333333;;;;;##2;333333333333333333333333##;;333333333",
"33333;;;;;;#;;3333333333333333333333333##;;;33333333",
"3333;;;;;;;;;#3333333333XXXXX3333333#33##;;;33333333",
"3333;;;;;;;;#33333333XXX+::::XX333333#33##;;;3333333",
"333;;;;#;;;##333333XX<<+XXXX:::X33333##3##;;;#333333",
"333;;;#;;;##333;3XX<<<+::+1&&:+X333333####;;;#333333",
"33;;;#;;;;##33;XX<<<<<+::::1111:X33333####;;;##33333",
"33;;##;;;##33;333X<<<XX::::   =:X33333####;;;##33333",
"33;##;;;;##3;3333X<<X::+:::    :X333333###;;;;##3333",
"33###;;;##2;3333X<<<X:::+::OOO :X333333###;;;;##3333",
"3###;;;;#;;33333X<<<<XXX.::111>:X333333###;;;;##3333",
"3###;;;;;;;3333X<<<<<<<X++:::::+X333333###;;;;##3333",
"3##;;;;;;;33333X<<<<<<<X%+.+:::X333333;###;;;;##3333",
"3##;;;;;;#3333X<<<<<<<<X%%+...X3333333;###;;;;##3333",
"33#;;;;;;#33XX<<<<<<<X$$$%%%%%@XXXX333;###;;;;##3333",
"33;;;;;;##3333XX<<XXX**@@@**%%*$$%*X33;##;;;;;##3333",
"3;;;#;;;##333333XX,-X**$$$-**%**@@*X3;;##;;;;;##3333",
"3;;#;;;###333333X,-,,X%,,,,,,,-,,X*X3;;##;;;;;##3;33",
"3;##;;;###333333X,,,-X*-,,,,,,-,,XX33;;#;;;;;;##3;33",
"3##;;;####333333X,,-,X%oooo,,,-,,XXX3;;#;;;;;;###;33",
"3##;;;####33333X-,,,X*XX---o@@@@X%%%X;;#;;;;;;###;33",
"3##;;;####33333X,--X*X33X--@@@@@X%%,;;;#;;;;;;##;;33",
"3#;;;#####33333X,,,*X3333X-@@@@@XX%,;;;;;;;;;;##;;33",
"3#;;;#####333333XXXX33333X,,,,,,X2X;;;;;;;;;;;#;;;33",
"3#;;;######3333333333333X%******%X2;;;;;;;;;;;#;;;33",
"33;;;######3333333333333X**%****%X;;;;;;;;;;;;#;;#33",
"333;;#######33333333333X****%**%**;;;;;;;;;;;;#;;#33",
"333;;########3333333333X****%*%**;;;;;;;;;;;;;#;;#33",
"3333;#########333333333X****XXX**;;;;;;;;;;;;;;;;#33",
"3333;###########3333333X*%%*X2X*;;;;;#;;;;;;;;;;##33",
"333333###########33333X%**%X22X;;;;;;#;;;;;;#;;;#333",
"333333##########33333X%%**X222;;;;;;##;;;;;;#;;;#333",
"3333333#########33333X**%X;22#;;;;;;##;;;;;;#;;##333",
"33333333########;3333X**%;;<##;;;;;###;;;;;##;;#3333",
"333333333#####;;#333X,**%;;###;;;;;##;;;;;;##;##3333",
"3333333333##;;;##333X,##;;;##;;;;;###;;;;;##;##33333",
"3333333333;;;;#########;;;###;;;;###;;;;;##;##333333",
"33333333;;;;;#########;;;###;;;;####;;;;#####3333333",
"33333;;;;;;;#########;;####;;;;####;;;;#####33333333",
"333333;;;;;###############;;;;#####;;######333333333",
"3333333;;;##############;;;;#############33333333333",
"333333333#####333###############33#####3333333333333",
"3333333333333333333333333333333333333333333333333333",
"3333333333333333333333333333333333333333333333333333",
"3333333333333333333333333333333333333333333333333333"
};
