/* XPM */
static const char *VegetaSSJ_moving_back[] = {
/* columns rows colors chars-per-pixel */
"82 79 23 1 ",
"  c black",
". c #4B1F35",
"X c #72313C",
"o c #2D0C7A",
"O c #4C5471",
"+ c #B76400",
"@ c #A54C26",
"# c #F33C41",
"$ c #CE7F5C",
"% c #F9AE00",
"& c #EFB33A",
"* c #FFF327",
"= c #2516D3",
"- c #4FB59D",
"; c #6281FF",
": c #929BB7",
"> c #F7D8C2",
", c #EDEFEF",
"< c #FFFAED",
"1 c #FFFFED",
"2 c #F0F2F2",
"3 c white",
"4 c None",
/* pixels */
"4444444444444444444444444444444444444444444444444444444444444444444444444444444444",
"4444444444444444444444444444444444444444444444444444444444444444444444444444444444",
"4444444444444444444444444444444444444444444444444444444444444444444444444444444444",
"4444444444444444444444444444444444444444444444444444444444444444444444444444444444",
"4444444444444444444444444444444444444444444444444444444444444444444444444444444444",
"4444444444444444444444444444444444444444444444444444444444444444444444444444444444",
"4444444444444444444444444444444444444444444444444444444444444444444444444444444444",
"4444444444444444444444444444444444444444444444444444444444444444444444444444444444",
"4444444444444444444444444444444444444444444444444444444444444444444444444444444444",
"4444444444444444444*4444444*444444444444444444444444444444444444444444444444444444",
"444444444444444444**444444**444*4444444444444*444444444444444444444444444444444444",
"44444444444444444***44*4***444**444*44*4444**4444*44444444444444444444444444444444",
"444444444444*44****44******4***444*****44***444**444444444444444444444444444444444",
"444444444444*******************44***************444444*4444444*4444444444444444444",
"44444444444************************************444444*4444444*44444444444444444444",
"4444444444*****1*******1**********************44444***44444**444444444444444444444",
"444444444*****11**1***11****1*****1****1*****4444****44444**4444444444444444444444",
"444444444*1**11**11*1111***11**1*11**11******44******444****4444444*44444444444444",
"44444444*11**11111*1111*1*11**1111*1111**1**********44*****444444**444444444444444",
"44444444*1**111111111111*111******111***1******************4444***4444444444444444",
"4444444**11111111111111* ***     *11* *11*1*****1*********44***1**4444*44444444444",
"444444**1111111111**11*  *  <<< ****  *1*111*1*1*************11**4444*444444444444",
"444444*11111111111* ** <  <<<< *    < *1111111*1**1**1******11**4444*4444444444444",
"44444**11111111111* * <%%<<<<%  <<<%< *11111111*11*11******1***44***44444444444444",
"44444*11111111111* % <@@@@@@<%%%%%%<< *1111111111111***1*1*******11*444444444**444",
"4444**11111111111* %<@<<<<@%%@@@@%<<< *1111111111111111****1***11**444444****44444",
"4444**1111111111* %<@<%<<@%<<<<@<<<<% *111111111111111**111***11**444*******444444",
"4444*11111111111* %@<%<<%%<<%<@<<<<% ***111111111111111111***1********1***44444444",
"444**1111111111* %@<%<<%%<<%<@@@@@@@    *111111111111111*1*********11****444444444",
"444*11111111111* %@<%<<%%<%<%<<<<<@<<< *111111111111111*1*11****111****44444444444",
"444*11111111111* %$<%%>>$$%%%%%<<@<<< *111111111111111111111111111****444444444444",
"444*11111111111* $><%>>>X$$%%<<<@<<< **111111111111111111111**11111111******444444",
"444*11111111111* >>%>@@@X$$<<<@@<<<%%  *1111111111111111111**111111******444444444",
"44*111111111111* >>>@22@X$%%%%%%%%%% **111111111111111111111111*****44444444444444",
"44*11111111111* >$>@22X$$$% @%@@@@@ *111111111111111111111111**********44444444444",
"44*11111111111* >$@-22$$$XX$ %@@%%%  *11111111111111111111111***************444444",
"44*11111111111* >222>>$$$X$$ %%%%  **1111111111111111111111111111111111***********",
"44*11111111111* >...>>$$$X$$ %%     *1111111111111111111111111111111***********333",
"44*11111111111* >...>>$$X$       ::: *11111111111111111111111111*******33333333333",
"44*111111111111* >##>>$X$= o&&==oo::O *11111111111111111111111111111**************",
"44*11111111**111* >>>$X&&&===++==ooo=: *111111111111111111111111111111111111111111",
"44*1111111*  *111*      +++,:,&==o===: *111111111111111111111111111111111111111111",
"44*111111* ,, *11** ;;=;;&&,,:,  ===  *1111111111111111111111111111111111111111111",
"44*11111* ,,,, *** ;===;;,,,,:: *   **11111111111111111111111111111111111111111111",
"44*11111* ,:,::   ;=;;o;=,,,,:& ****11111111111111111111111111111111**************",
"44*11111* ::,:,,oo==;;ooOO&&&&+ *1111111111111111111111111111111*******33333333333",
"44*111111*    ,;;=;;=  :::++++& *11111111111111111111111111111111111***********333",
"44*1111111****  ;=;  *  ,:++&&, *11111111111111111111111111111111111111***********",
"44*11111111111**   **11* ,,,,,= *1111111111111111111111111111***************444444",
"44*1111111111111***11111 ;;;;;;= *111111111111111111111111111**********44444444444",
"44*1111111111111111111* ;;;;;;;; *11111111111111111111111111111*****44444444444444",
"44*111111111111111111* ;;;;;;;;;; *111111111111111111111111**111111******444444444",
"44**1111111111111111* ;;;=;=;;;;; *1111111111111111111111111**11111111******444444",
"444*111111111111111* =;;;;==;;=;; *1111111111111111111111111111111****444444444444",
"444*11111111111111* ;;;;;=oo=;;=; **1111111111111111111*1*11****111****44444444444",
"444**1111111111111* ;;=oo     ;==;  *1111111111111111111*1*********11****444444444",
"444**1111111111111* ;;=o=O:: * =;;== *11111111111111111111***1********1***44444444",
"4444*11111111111111*   ::  ++ * ;;== *1111111111111111**111***11**444*******444444",
"4444**11111111111111**   ** + ** oo== *1111111111111111****1***11**444444****44444",
"4444**1111111111111111***11*  ** =o==, *111111111111***1*1*******11*444444444**444",
"44444**111111111111111111111**11* ===, *1111111*11*11******1***44***44444444444444",
"444444*11111111111111111111111111* ,,,: *11111*1**1**1******11**4444*4444444444444",
"444444**1111111111111111111111111* :::: *111*1*1*************11**4444*444444444444",
"4444444**1111111111111111111111111*  ::, *1*****1*********44***1**4444*44444444444",
"4444444**1**11111111111111111111111** ,, ******************4444***4444444444444444",
"44444444*11**11111*1111*1*11**1111*11* && **********44*****444444**444444444444444",
"444444444*1**11**11*1111***11**1*11**1* & ***44******444****4444444*44444444444444",
"444444444*****11**1***11****1*****1*****  ***4444****44444**4444444444444444444444",
"4444444444*****1*******1**********************44444***44444**444444444444444444444",
"44444444444************************************444444*4444444*44444444444444444444",
"444444444444*******************44***************444444*4444444*4444444444444444444",
"444444444444*44****44******4***444*****44***444**444444444444444444444444444444444",
"44444444444444444***44*4***444**444*44*4444**4444*44444444444444444444444444444444",
"444444444444444444**444444**444*4444444444444*444444444444444444444444444444444444",
"4444444444444444444*4444444*444444444444444444444444444444444444444444444444444444",
"4444444444444444444444444444444444444444444444444444444444444444444444444444444444",
"4444444444444444444444444444444444444444444444444444444444444444444444444444444444",
"4444444444444444444444444444444444444444444444444444444444444444444444444444444444",
"4444444444444444444444444444444444444444444444444444444444444444444444444444444444"
};
