/* XPM */
static const char *Vegeta_moving__UP[] = {
/* columns rows colors chars-per-pixel */
"39 57 16 1 ",
"  c black",
". c #2E323D",
"X c #67393F",
"o c #1C204B",
"O c #273F70",
"+ c #474648",
"@ c #606072",
"# c #966837",
"$ c #D17C53",
"% c #E2A258",
"& c #3C61C1",
"* c #929BB7",
"= c #F3C8A3",
"- c #EDEFEF",
"; c #F0F2F2",
": c None",
/* pixels */
":::::::::::::::::::::::::::::::::::::::",
":::::::::::::::::::::::::::::::::::::::",
":::::::: ::::::::::::::::::::::::::::::",
":::::::: :::::: :::::::::::::::::::::::",
":::::::   :::::  ::::::::::::::::::::::",
":::::::  .    :    :: :::::::::::::::::",
"::::::    .       . : :::::::::::::::::",
"::::::     ...     .   ::::::::::::::::",
"::::::       ...    .   :::::::::::::::",
"::::::        ...    .  :::::::::::::::",
":::: :         ...    .  ::::::::::::::",
"::::            ..    .  ::::::::::::::",
":::: .         $$$$   $  ::::::::::::::",
"::::  .       $$X$==  =  ::::::::::::::",
":::::  ..     $$X  == == ::::::::::::::",
":::::   ..     $$X* ==== ::::::::::::::",
"::::::   ..    $$X;; =$=$ :::::::::::::",
":::::::    . =X$$$=;+ $== :::::::::::::",
":::::        =$X$$$====== :::::::::::::",
":::::::      $=X$$$==$$== :::::::::::::",
":::::::::      XX$$=====$ :::::::::::::",
"::::::::        $X$====$ ::::::::::::::",
":::::::::::     O$X$==$  ::::::::::::::",
"::::::::::::  %%%OOXXXX## :::  ::::::::",
":::::::::   &&&###&&O&&%%O : -  :::::::",
":::::::: -- &&&&---&&O&--O : @-- ::::::",
"::::::: -@@- &&O------*--O : @**- :::::",
"::::::: *--* Ooo@@*---*-* :: ---* :::::",
"::::::: ---* & **@@@%%%% O  -**- ::::::",
"::::::: --*- &  ***##### O**-** :::::::",
"::::::::      ::  -#%%%% O***- ::::::::",
"::::::::: ** :::: *-----      :::::::::",
"::::::::::  ::::: &&&&&&&&  :::::::::::",
":::::::::::::::: O&&&&&&&&&O ::::::::::",
":::::::::::::::: &&&&O&&O&&&&  ::::::::",
":::::::::::::::: &&&&Oooo&&&&&& :::::::",
":::::::::::::::: &&&&O  oO&&&&& :::::::",
":::::::::::::::: &&O& ::  ooo& ::::::::",
":::::::::::::::: &O&O ::: OOo :::::::::",
"::::::::::::::: &&OO ::: **OO :::::::::",
"::::::::::::::: O&& :::: @** ::::::::::",
":::::::::::::: oo&& :::: *@ :::::::::::",
":::::::::::::: OoOO ::: ** ::::::::::::",
":::::::::::::: OOO :::: ## ::::::::::::",
":::::::::::::: -OO :::: # :::::::::::::",
":::::::::::::: --- ::::  ::::::::::::::",
":::::::::::::: *-- ::::::::::::::::::::",
":::::::::::::: *** ::::::::::::::::::::",
"::::::::::::::: ** ::::::::::::::::::::",
"::::::::::::::: -- ::::::::::::::::::::",
"::::::::::::::: -- ::::::::::::::::::::",
"::::::::::::::: %% ::::::::::::::::::::",
":::::::::::::::: % ::::::::::::::::::::",
":::::::::::::::::  ::::::::::::::::::::",
":::::::::::::::::::::::::::::::::::::::",
":::::::::::::::::::::::::::::::::::::::",
":::::::::::::::::::::::::::::::::::::::"
};
