/* XPM */
static const char *VegetaSSJ_catch_item_back[] = {
/* columns rows colors chars-per-pixel */
"45 54 19 1 ",
"  c black",
". c #72313C",
"X c #2D0C7A",
"o c #4C5471",
"O c #B76400",
"+ c #A54C26",
"@ c #CE7F5C",
"# c #F9AE00",
"$ c #EFB33A",
"% c #2516D3",
"& c #4FB59D",
"* c #6281FF",
"= c #929BB7",
"- c #F7D8C2",
"; c #EDEFEF",
": c #FFFAED",
"> c #F0F2F2",
", c white",
"< c None",
/* pixels */
"<<<<<<<<<<<<<<<<<<<<<<<<<<<<<<<<<<<<<<<<<<<<<",
"<<<<<<<<<<<<<<<<<<<<<<<<<<<<<<<<<<<<<<<<<<<<<",
"<<<<<<<<<<<<<<<<<<<<<<<<<<<<<<<<< <<<<<<<<<<<",
"<<<<<<<<<<<<<<<<<<<<<<<<<<< <<<<  <<<<<<<<<<<",
"<<<<<<<<<<<<<<<<<<<<<<<<<<  <<< : <<<<<<<<<<<",
"<<<<<<<<<<<<<<<<<<<<< <<< # <  :: <<<<<<<<<<<",
"<<<<<<<<<<<<<<<<<<<<< << ##  ::::# << <<<<<<<",
"<<<<<<<<<<<<<<<<<<<< :  ###::#:::# <  <<<<<<<",
"<<<<<<<<<<<<<<<<< < #:+#::+:#::#:#  : <<<<<<<",
"<<<<<<<<<<<<<<<<< < ::+::++#:::#:#+:: <<<<<<<",
"<<<<<<<<<<<<<<<< :  ::+:+:+:::+#:+#:: <<<<<<<",
"<<<<<<<<<<<<<<<< :#+::++::+::++#+#::# <<<<<<<",
"<<<<<<<<<<<<<<<< ::+::+:::+:+:+##::#: <<<<<<<",
"<<<<<<<<<<<<<<<< ::+##::#:++::+####: <<<<<<<<",
"<<<<<<<<<<<<<<<< ::+##::#:#:::+###: <<<<<<<<<",
"<<<<<<<  <<<<<<< :#+##::##::::+++++     <<<<<",
"<<<<<< $ <<<<<<< #+-@#::#:::#:+++###:: <<<<<<",
"<<<<< $$ <<<<<<<< @-@@#:#::#:+#:::::: <<<<<<<",
"<<<<<$$< <<<<<<<< --@@@:###:+###:::: <<<<<<<<",
"<<<<<$<< <<<<<<<< --+@@###:+#:::::+ <<<<<<<<<",
"<<<<<$<<< <<<<<<< -+.@@# #######+++ <<<<<<<<<",
"<<<<<$<=== <<<<<< +>.@@ - ###++++###  <<<<<<<",
"<<<<<$<====  <<<< &>@@@-- ########  <<<<<<<<<",
"<<<<<<<===;;; <<< --@@@-- ######  <<<<<<<<<<<",
"<<<<<<<==;*** <<< --@@@. %%%%   <<<<<<<<<<<<<",
"<<<<<<<=<***%% <<< --   $OO%%OO% <<<<<<<<<<<<",
"<<<<<<<=<***%** <<<  **%**$$;;$% <<<<<<<<<<<<",
"<<<<<<<=<******* <<< *%***;;;;;% <<<<<<<<<<<<",
"<<<<<<<=<******** << %%**%;;;;;X <<<<<<<<<<<<",
"<<<<<<<=<****%**** << *%% =;;;X%% <<<<<<<<<<<",
"<<<<<<<=<****%***** < *%* $$$ %%= <<<<<<<<<<<",
"<<<<<<<<<****%%****  ;;* OOO  %%== <<<<<<<<<<",
"<<<<<<<<<****%%%   ===;* ;= << ===o  <<<<<<<<",
"<<<<<<<<<<***%% ;;;;;=; ** <<<<  oo== <<<<<<<",
"<<<<<<<<<<***%% ;;==;  *** <<<<<< === <<<<<<<",
"<<<<<<<<<<****% =;== **%* <<<<<<< o== <<<<<<<",
"<<<<<<<<<<****%, ;; %%%  <<<<<<<<<   <<<<<<<<",
"<<<<<<<<<<<***%,   %%% <<<<<<<<<<<<<<<<<<<<<<",
"<<<<<<<<<<<****% %%%% <<<<<<<<<<<<<<<<<<<<<<<",
"<<<<<<<<<<<****% %%X <<<<<<<<<<<<<<<<<<<<<<<<",
"<<<<<<<<<<<<****%%% <<<<<<<<<<<<<<<<<<<<<<<<<",
"<<<<<<<<<<<<*****%** <<<<<<<<<<<<<<<<<<<<<<<<",
"<<<<<<<<<<<<<*****%* <<<<<<<<<<<<<<%<<<<<<<<<",
"<<<<<<<<<<<<<<*****%; <<<<<<<<<<<<%<<<<<<<<<<",
"<<<<<<<<<<<<<<<*****%%<<<<<<<<<<%%<<<<<<<<<<<",
"<<<<<<<<<<<<<<<<******%%<<<<<<%%*<<<<<<<<<<<<",
"<<<<<<<<<<<<<<<<<<*******%%%%***<<<<<<<<<<<<<",
"<<<<<<<<<<<<<<<<<<< ;o********<<<<<<<<<<<<<<<",
"<<<<<<<<<<<<<<<<<<<< ;oo<<<<<<<<<<<<<<<<<<<<<",
"<<<<<<<<<<<<<<<<<<<<< $o<<<<<<<<<<<<<<<<<<<<<",
"<<<<<<<<<<<<<<<<<<<<<< $<<<<<<<<<<<<<<<<<<<<<",
"<<<<<<<<<<<<<<<<<<<<<<<<<<<<<<<<<<<<<<<<<<<<<",
"<<<<<<<<<<<<<<<<<<<<<<<<<<<<<<<<<<<<<<<<<<<<<",
"<<<<<<<<<<<<<<<<<<<<<<<<<<<<<<<<<<<<<<<<<<<<<"
};
