/* XPM */
static const char *Vegeta_standing_back[] = {
/* columns rows colors chars-per-pixel */
"29 55 17 1 ",
"  c black",
". c #2E323D",
"X c #67393F",
"o c #1C204B",
"O c #273F70",
"+ c #474648",
"@ c #606072",
"# c #966837",
"$ c #D17C53",
"% c #E2A258",
"& c #3C61C1",
"* c #839BA8",
"= c #929BB7",
"- c #F3C8A3",
"; c #EDEFEF",
": c #F0F2F2",
"> c None",
/* pixels */
">>>>>>>>>>>>>>>>>>>>>>>>>>>>>",
">>>>>>>>>>>>>>>>>>> >>>>>>>>>",
">>>>>>>>>>>>>>>>>>  >>>>>>>>>",
">>>>>>>>>>> >>>>>   >>>>>>>>>",
">>>>>>>>>>  >>>      >>>>>>>>",
">>>>>>>>>   >        >>>>>>>>",
">>>>>> >       .      >>>>>>>",
">>>>>> >      .       >> >>>>",
">>>>>>       .        >  >>>>",
">>>>> .     ..    .      >>>>",
">>>>> .    ..     .    . >>>>",
">>>>> .   ...    ..    . >>>>",
">>>>> .   ..    ...   .. >>>>",
">>>>> .  ...   ...    . >>>>>",
">>>>>    .. $- ...   .  >>>>>",
">>>>>    ..--$$..   .  >>>>>>",
">>>>> $  .--$$$$          >>>",
">>>>> -  --$$X$$         >>>>",
">>>>> - ---$$X$$        >>>>>",
">>>>> $----  X$$ $     >>>>>>",
">>>>>> --- *X$$X$$    >>>>>>>",
">>>>>> -$ ::X$$X$$     >>>>>>",
">>>>>> - +:-$$$    >>>>>>>>>>",
">>>>>>> ----$$X >>>>>>>>>>>>>",
">>>>>>>> $---XO  >>>>>>>>>>>>",
">>>>>>    XXXOO%%  >>>>>>>>>>",
">>>>> &%%OOOOO  &&& >>>>>>>>>",
">>>>> &    ;; @; && >>>>>>>>>",
">>>> OO ;==  ;;= OO >>>>>>>>>",
">>> &&O  =;;oOO&&  >>>>>>>>>>",
">>> &&&=@ ;;&&&  >>>>>>>>>>>>",
">>>>   =@@  &&  >>>>>>>>>>>>>",
">>>>>>>   ##  = >>>>>>>>>>>>>",
">>>>>>>> ;;;==O >>>>>>>>>>>>>",
">>>>>>> oOOOOOOo >>>>>>>>>>>>",
">>>>>>> oOOOOO&& >>>>>>>>>>>>",
">>>>>> &&oOOO&&&& >>>>>>>>>>>",
">>>>>> &&&ooo&&&& >>>>>>>>>>>",
">>>>>> O&&   &&&& >>>>>>>>>>>",
">>>>>> O&& > &OO& >>>>>>>>>>>",
">>>>> &OOO >> O&&o >>>>>>>>>>",
">>>>> &&O >>>> &&OO >>>>>>>>>",
">>>>> O&O >>>>> oOO >>>>>>>>>",
">>>>>> oO  >>>> OoO >>>>>>>>>",
">>>>>> oO= >>>> OOO; >>>>>>>>",
">>>>>> === >>>>> ;;; >>>>>>>>",
">>>>>> @@ >>>>>> === >>>>>>>>",
">>>>>> @@ >>>>>>> == >>>>>>>>",
">>>>>  = >>>>>>>>> ;; >>>>>>>",
">>>> #== >>>>>>>>> ;; >>>>>>>",
">>> ##== >>>>>>>>>> ;% >>>>>>",
">>>>>>>>>>>>>>>>>>> %% >>>>>>",
">>>>>>>>>>>>>>>>>>>>>>>>>>>>>",
">>>>>>>>>>>>>>>>>>>>>>>>>>>>>",
">>>>>>>>>>>>>>>>>>>>>>>>>>>>>"
};
