/* XPM */
static const char *Vegeta_catch_item_back_nb[] = {
/* columns rows colors chars-per-pixel */
"42 55 12 1 ",
"  c black",
". c #2E323D",
"X c #1C204B",
"o c #273F70",
"O c #606072",
"+ c #966837",
"@ c #E2A258",
"# c #3C61C1",
"$ c #929BB7",
"% c #EDEFEF",
"& c white",
"* c None",
/* pixels */
"******************************************",
"******************************************",
"******************************************",
"**************OOOOOO**********************",
"************OO******O*********************",
"***********O*****$$$O*********************",
"**********O****$$$$%O*********************",
"*********O****$$$OOO***     ***** ********",
"*************$%%O****  ..  *****  ********",
"************$%%% **  ..         . ********",
"***********$o#$% *  .   ........  ********",
"**********$o## $   .  .......     ********",
"*********$o###    .  ...          ********",
"********$$####      ..            ********",
"********$####o     .            . * ******",
"*******$$##o#o    .            . &  ******",
"*******$###o#o                .   . ******",
"*******$##oo##               .. ..  ******",
"******$$##oo##             .....   *******",
"******$$##& ##                     *******",
"******$$##& ###                   ********",
"******$$#&& o@@                  *********",
"******$$#& $++o##               **********",
"******$$#& %@@####             ***********",
"******$$#& %%%#++@@              *********",
"******$$#& %%%%@@###          ************",
"******$$#& %%%% ####       ***************",
"******$$#& @%%% o##o *********************",
"******$$#&& @@ oooo    *******************",
"******$$$#& + #o## %$$% ******************",
"*******$$#&& ##%%  %$%% ******************",
"*******$$#&& ##%$$%%%%  ******************",
"********$$#&& #%$$%%%% *******$***********",
"*********$$# o        ********$***********",
"**********$$ ####oo ********$*$***********",
"***********$$####ooo  *****$*$$***********",
"*************$$##ooooo **$$**$************",
"********** #$$$$$$$$$$$$$***$*************",
"********* o####$$$$$$$$# **$**************",
"********* #####    oooXX# ****************",
"******** ##ooX ****   Xo#  ***************",
"******* ####o ******** #### **************",
"******* #### ********* ##### *************",
"******** #%%% ********* ##%%% ************",
"********* %$$ ********** $%%% ************",
"********* %$$$ ********** %$$$ ***********",
"**********  $% *********** $$$ ***********",
"************ %% *********** $%$ **********",
"************ %% ************ %% **********",
"************ OOO************ %%@ *********",
"*********** +OO************** OO@ ********",
"******************************************",
"******************************************",
"******************************************",
"******************************************"
};
