/* XPM */
static const char *VegetaSSJ_moving_DOWN[] = {
/* columns rows colors chars-per-pixel */
"72 92 23 1 ",
"  c black",
". c #72313C",
"X c #2D0C7A",
"o c #4C5471",
"O c #B76400",
"+ c #A54C26",
"@ c #CE7F5C",
"# c #D17C53",
"$ c #F9AE00",
"% c #EFB33A",
"& c #FFF327",
"* c #2516D3",
"= c #4FB59D",
"- c #6281FF",
"; c #839BA8",
": c #929BB7",
"> c #F7D8C2",
", c #EDEFEF",
"< c #FFFAED",
"1 c #FFFFED",
"2 c #F0F2F2",
"3 c white",
"4 c None",
/* pixels */
"444444444444444444444444444444444444444444444444444444444444444444444444",
"44444444444444444444444444444&44444444&444444444444444444444444444444444",
"44444444444444444444444444444&44444444&444444444444444444444444444444444",
"44444444444444444444444444444&44444444&444444444444444444444444444444444",
"44444444444444444444444444444&44444444&444444444444444444444444444444444",
"44444444444444444444444444444&44444444&444444444444444444444444444444444",
"44444444444444444444444444444&44444444&444444444444444444444444444444444",
"44444444444444444444444444444&44444444&444444444444444444444444444444444",
"44444444444444444444444444444&44444444&444444444444444444444444444444444",
"44444444444444444444444444444&44444444&444444444444444444444444444444444",
"444444444444444444444&444444&&44444444&&444444&4444444444444444444444444",
"444444444444444444444&444444&&44444444&&444444&4444444444444444444444444",
"444444444444444444444&&44444&&44444444&&44444&&4444444444444444444444444",
"444444444444444444444&&44444&&44444444&&44444&&4444444444444444444444444",
"444444444444444444444&&&4444&&44444444&&4444&&&4444444444444444444444444",
"444444444444444444444&&&4444&&44444444&&4444&&&4444444444444444444444444",
"4444444444444444444444&1&444&&44444444&&444&1&44444444444444444444444444",
"444444444444444444&444&1&444&&44444444&&444&1&444&4444444444444444444444",
"444444444444444444&444&&&&44&&44444444&&44&&&&444&4444444444444444444444",
"444444444444444444&&44&&4&&4&&44444444&&4&&4&&44&&4444444444444444444444",
"444444444444444&44&&&4&&4&&4&&44444444&&4&&4&&4&&&44&4444444444444444444",
"444444444444444&&4&&&4&&44&&&&44444444&&&&44&&4&&&4&&4444444444444444444",
"4444444444&44&44&44&&&&&44&&&&44444444&&&&44&&&&&44&44&44&44444444444444",
"44444444444&44&4&&4&&&&&&44&&&44444444&&&44&&&&&&4&&4&44&444444444444444",
"444444444444&444&&4&1&&&&44&&&44444444&&&44&&&&1&4&&444&4444444444444444",
"444444444444&&444&&&&&&&&444&&44444444&&444&&&&&&&&444&&4444444444444444",
"4444444444444&&&4&&&&1&&&4444&44444444&4444&&&1&&&&4&&&44444444444444444",
"4444444444444&&&&3&&&1&&&4444&44444444&4444&&&1&&&3&&&&44444444444444444",
"44444444444444&&&&&&&&4&&&4444444444444444&&&1&&&&&&&&444444444444444444",
"44444444444444&&&&&&&&44&&4444444444444444&&11&&&&&&&&444444444444444444",
"444444444&&44&3&&&1&&&&4&&4444444&&4444444&&1&&&&1&&&3&44&&4444444444444",
"4444444444&&44&3&&&1&&&44&444444&  &4444&&&11&&&1&&&3&44&&44444444444444",
"444444&4444&&44&&&&&&&&44444444& % &4444&  &1&&&&&&&&44&&4444&4444444444",
"4444444&444&&&4&&&&44&&4444444& %% &444& % &1&&11&&&&4&&&444&44444444444",
"4444444&&444&&&&&&&&44&&444444& ,, &44& %% &&&11&&&&&&&&444&&44444444444",
"44444444&&44&&&&44&&4444444444& ,, &44& ,, &1111&&11&&&&44&&444444444444",
"44444444&&&4&&&&&44&&444444444& :: &44& ,, &111&&11&&&&&4&&&444444444444",
"444444444&&&3&1&&&444444444444& ::: &&& :: &111111&&&1&3&&&4444444444444",
"44444&444&&&&&&44&&44444444444& :,, && o:: &11111&&11&&&&&&444&444444444",
"444444&444&&&&&&44444444444444& ,,, && o,, &11111111&&&&&&444&4444444444",
"444444&&44&&&&1&&4444444444444& ,** && ,** &1111111&&1&&&&44&&4444444444",
"4444444&&44&&&&44&444444444444& **** & **** &11111&11&&&&44&&44444444444",
"4444444&&&&&&1&&44444444444444& **X* & **XX &1111111&&1&&&&&&44444444444",
"444444&3&&&&&&1&&4444444444444& **XX && *-- &111111&&1&&&&&&3&4444444444",
"4444&44&&&&&&&&&444444444444444& **-- & *-- &1111111&&&&&&&&&44&44444444",
"4444&&44&&1&&1&&4444444444&&&&4& **--*  --* &1111111&&1&&1&&44&&44444444",
"44444&&4&&&&&&4&444444444&    &1& --*-XX--* &&111111&1&&&&&&4&&444444444",
"44444&&&&&&44&4444444444& ,:,  && --*-XXX--   &1111111&11&&&&&&444444444",
"444444&&&&&&444444444444& ,::, && ----***-- ,, &11111111&&&&&&4444444444",
"4444444&&&1&&44444444444& ,,,, && ---*--*-- ,:, &111111&&1&&&44444444444",
"444&44&&&&&&444444444444& ,,, &1& --------- ::, &1111111&&&&&&44&4444444",
"4444&44&&&&4444444444444& :: &11& *------- ,,,, &11111111&&&&44&44444444",
"44444&&3&&&&444444444444& ,, &111& -------  :: &11111111&&&&3&&444444444",
"4444&3&&&&1&&44444444444& ,, &111& :,,,,, & ,, &1111111&&1&&&&3&44444444",
"&&444&&&&&&44444444444444 ,-- &&&  ,O%%%% & -, &111111111&&&&&&444&&4444",
"4&&444&&&&&&4444444444444& --- & :::OOOOO  --- &11111111&&&&&&444&&44444",
"44&&444&&&&&4444444444444& --**  :::o%%%%: *- &111111111&&&&&444&&444444",
"4&&&&&44&11&&4444444444444& **--*ooo:,,,:,-*- &11111111&&11&44&&&&&44444",
"44&&&&&44&&444444444444444& -*--*:,,,,,,:,-* &11111111111&&44&&&&&444444",
"444&&&&&&&&&444444444444444& -**-,,,,,,:,,** &1111111111&&&&&&&&&4444444",
"4&44&&&&11&&444444444444444& -*--%%,--*-,%- &11111111111&&11&&&&44&44444",
"44&&&&&&&&4&&44444444444444& -**OOO**XX*OO- &1111111111&&1&&&&&&&&444444",
"4444&&&&&444&4444444444444&&&   %%**....%  &11111111111&111&&&&&44444444",
"44444&&1&&&4444444444444&&       *#.@>>@ &&11111111111111&&&1&&444444444",
"4&&44&&&1&&&44444444444&  $$$+++ @.@>>>>@ &1111111111111&&&1&&&44&&44444",
"444&&3&&&44&&4444444444&& ++++  ..@@>22>>@ &11111111111&&11&&&3&&4444444",
"44&&&&&&&&44&44444444&&  $$$$ @>.@@@>;;2>> &11111111111&11&&&&&&&&444444",
"444&&&&&&&&44&444444&  $$$$++ >@.@@@>222>> &1111111111&11&&&&&&&&4444444",
"4444&&&&&&&&444444444&&  ++++ >.@@@>2=+@>> &111111111111&&&&&&&&44444444",
"444444&&&444444444444& <<$$$$$  @@.22+>@>@ &111111111111111&&&4444444444",
"444&&&3&&&4444444444& <$$$+$$$$$@@.:+>>>> &111111111111111&&&3&&&4444444",
"4444&&&&&&&&4444444& <$<<+<$<<<@@.++>>>>> &1111111111111&&&&&&&&44444444",
"444444&&&&&&&44444& <<<<+<$<<<$@@.@>>>$> &1111111111111&&&&&&&4444444444",
"44&&4&&&&&&444444&    ++<$<<<$$<@@@@$<$@ &111111111111111&&&&&&4&&444444",
"444&&&&&&&&&444444&&& $+<<<<++<<$$$$<<$+ &11111111111111&&&&&&&&&4444444",
"444444&&11&&&&44444& $<+<+++$+<$<$<$<<$+ &111111111111&&&&11&&4444444444",
"44444&&&&&4444&4444& <<++<<$+<$<+$<$<$$+ &11111111111&1111&&&&&444444444",
"44444444&&&44444444& <<+<<$+<<<++<<<<$<  &111111111111111&&&444444444444",
"4444&&&&3&&&4444444& <<<<<+++++<+<<< < & &11111111111111&&&3&&&&44444444",
"444444&&&&&&&&44444& <<<$$$$$<<  << & &1&1111111111111&&&&&&&&4444444444",
"444444444&&&4444444& <     $<< & < && &11111111111111111&&&4444444444444",
"44444444444&&&&4444&  &&&& << &&  &11&1111111111111111&&&444444444444444",
"4444444&&&&&&&&&&44& &11&    &1& &111111111111111111&&&&&&&&&44444444444",
"44444444444&&&&&&&44&111&&&&&11&&11111111111111111&&&&&&&444444444444444",
"4444444444444&&&&&&&1111111111111111111111111111&&&&&&&44444444444444444",
"4444444444444444&&&&&&111111111111111111111111&&&&&&44444444444444444444",
"44444444444444444444&&&&&111111111111111111&&&&&444444444444444444444444",
"444444444444444444444444&&&&&&&&&&&&&&&&&&&&4444444444444444444444444444",
"444444444444444444444444444444444444444444444444444444444444444444444444",
"444444444444444444444444444444444444444444444444444444444444444444444444",
"444444444444444444444444444444444444444444444444444444444444444444444444",
"444444444444444444444444444444444444444444444444444444444444444444444444"
};
