/* XPM */
static const char *Vegeta_transf_ph3[] = {
/* columns rows colors chars-per-pixel */
"67 84 23 1 ",
"  c black",
". c #4B1F35",
"X c #72313C",
"o c #312859",
"O c #434F72",
"+ c #B76E14",
"@ c #A54C26",
"# c #F33C41",
"$ c #CE7F5C",
"% c #FFA700",
"& c #F9AE00",
"* c #EFB33A",
"= c #FFF327",
"- c #3056AD",
"; c #2E9EF4",
": c #849BA7",
"> c #929BB7",
", c #F7D8C2",
"< c #EDEFEF",
"1 c #FFFAED",
"2 c #FFFFED",
"3 c #F0F2F2",
"4 c None",
/* pixels */
"4444444444444444444444444444444444444444444444444444444444444444444",
"4444444444444444444444444444444444444444444444444444444444444444444",
"4444444444444444444444444444444444444444444444444444444444444444444",
"4444444444444444444444444444444444444444444444444444444444444444444",
"444444444444444444444444444444444%444444444444444444444444444444444",
"444444444444444444444444444444444%444444444444444444444444444444444",
"44444444444444444444444444444444%%%44444444444444444444444444444444",
"44444444444444444444444444444444%%%44444444444444444444444444444444",
"44444444444444444444444444444444%%%44444444444444444444444444444444",
"4444444444444444444444444444444%%=%%4444444444444444444444444444444",
"4444444444444444444444444444444%%=%%4444444444444444444444444444444",
"4444444444444444444444444444444%%=%%4444444444444444444444444444444",
"444444444444444444444444444444%%=2=%%444444444444444444444444444444",
"4444444444444444444444%4444444%%=2=%%4444444%4444444444444444444444",
"4444444444444444444444%4444444%%=2=%%4444444%4444444444444444444444",
"4444444444444444444444%444444%%=222=%%444444%4444444444444444444444",
"444444444444444444444%%%44444%%=222=%%44444%%%444444444444444444444",
"444444444444444444444%%%44444%%=222=%%44444%%%444444444444444444444",
"444444444444444444444%%%%444%%=22222=%%444%%%%444444444444444444444",
"444444444444444444444%%%%444%%=22222=%%444%%%%444444444444444444444",
"444444444444444444444%%=%%44%%=22222=%%44%%=%%444444444444444444444",
"44444444444444444444%%%=%%%4%=2222222=%4%%%=%%%44444444444444444444",
"44444444444%44444444%%%=%%%%%=2222222=%%%%%=%%%44444444%44444444444",
"44444444444%44444444%%===%%%%=2222222=%%%%===%%44444444%44444444444",
"44444444444%%4444444%%=2=%%%==2222222==%%%=2=%%4444444%%44444444444",
"44444444444%%%444444%%=2==%%=222222222=%%==2=%%444444%%%44444444444",
"44444444444%%%%4444%%%=2==%==222222222==%==2=%%%4444%%%%44444444444",
"44444444444%%%%%444%%==22=%==222222222==%=22==%%444%%%%%44444444444",
"44444444444%%%%%%44%%==22===22222222222===22==%%44%%%%%%44444444444",
"44444444444%%=%%%%4%%==22===22222222222===22==%%4%%%%=%%44444444444",
"44444444444%%==%%%%%%==222==22222222222==222==%%%%%%==%%44444444444",
"44444444444%%===%%%%%==222=2222222222222=222==%%%%%===%%44444444444",
"4444444444%%%====%%%==2222=2222222222222=2222==%%%====%%%4444444444",
"4444444444%%%=2===%%==22222222222222222222222==%%===2=%%%4444444444",
"4444444444%%==2====%==22222222222222222222222==%====2==%%4444444444",
"4444444444%%==22=====2222222222222222222222222=====22==%%4444444444",
"4444444444%%==222====2222222222222222222222222====222==%%4444444444",
"4444444444%%==2222===2222222222222222222222222===2222==%%4444444444",
"4444444444%%==22222==2222222222222222222222222==22222==%%4444444444",
"4444444444%%==222222=2222222222222222222222222=222222==%%4444444444",
"4444444444%%==222222222222222222222222222222222222222==%%4444444444",
"4444444444%%==2222222222222222222=2222222222222222222==%%4444444444",
"4444444444%%==2222222222222222=== ==22222222222222222==%%4444444444",
"444%444444%%==2222222222222===   ,  =2222222222222222==%%444444%444",
"444%%44444%%==22222222222==   $$,,,, =222222222222222==%%44444%%444",
"444%%%4444%%==222222222==  11$,,,333, =22222222222222==%%4444%%%444",
"444%%%%444%%==22222222=  11&$$$,,..:., =2222222222222==%%444%%%%444",
"4444%%%%%4%%==222222== 11&&&$$$$,...., =2222222222222==%%4%%%%%4444",
"4444%%=%%%%%===2222=  111111$$$$,##.., =222222222222===%%%%%=%%4444",
"4444%%==%%%%===22222== @@@&  $$$,3333, =222222222222===%%%%==%%4444",
"44444%%==%%%===222222= &11 $,,X$,,,,,$ =222222222222===%%%==%%44444",
"44444%%========22222= &11& ,,$$X$,,,, ==222222222222========%%44444",
"44444%%%==2=====2222= 11&11   oo-;;o-   =2222222222=====2==%%%44444",
"444444%%==22====222= &1&11&&& *++;;-o;** =222222222====22==%%444444",
"444444%%==222===222= 1&11&1  ;;**<<<<><+< =22222222===222==%%444444",
"444444%%%==222==22= 11&111 ;;;;<<<<<<<><< =2222===2==222==%%%444444",
"4444444%%==2222=== 11&&11@ -;;-<<<<<<<><< =22==   ==2222==%%4444444",
"4444444%%===222=  1&  &1@ ;-oooOOO<<***+< =2=   << =222===%%4444444",
"4444444%%%==2222==   < @& --;; <<>O+++++ - = <OO>< =222==%%%4444444",
"44444444%%===2222= <OO<  ;;-; =  <>+**** oo  <O<<> =22===%%44444444",
"44%%%%%%%%===2222= <<O>><<;  =2== <<<<<< ->>OO>>< =222===%%%%%%%%44",
"444%%%%%%%====222= <><<><<; =222= ;;;;;;- >>>O<<> =22====%%%%%%%444",
"4444%%%========222= ><<>   =2222= ;;;;;;-;       =22========%%%4444",
"44444%%%==222222222=    ===2222= ;;-;;;;-; ======22222222==%%%44444",
"444444%%%===22222222====2222222= ;;;-;;-;;; =2222222222===%%%444444",
"4444444%%%====2222222222222222= ;;;;---;;-; =22222222====%%%4444444",
"44444444%%%=====22222222222222= ;-;;   ;;-; =222222=====%%%44444444",
"444444444%%%=====222222222222= ;--;; = ;;-- =22222=====%%%444444444",
"4444444444%%%=====22222222222= ---; =4= --;; =222=====%%%4444444444",
"44444444444%%=222222222222222= ;;-; =44= -;; =2222222=%%44444444444",
"4444%%%%%%%%%==2222222222222= -;;- =444= -o- =222222==%%%%%%%%%4444",
"444444%%========222222222222= -oo =4444= -oo =22222========%%444444",
"4444444%%%======22222222222= <-- =4444= <-- =222222======%%%4444444",
"444444444%%%=====222222222= ><<< =4444= <<< =22222=====%%%444444444",
"4444444444%%%====222222222= ><<< =44444= OO =22222====%%%4444444444",
"44444444444%%%====22222222= >>> =444444= OO =2222====%%%44444444444",
"444444444444%%%====2222222= >> =44444444= >> =22====%%%444444444444",
"4444444444444%%%%===22222= << =444444444= << =2===%%%%4444444444444",
"444444444444444%%%%==2222= << =444444444= <<+ ==%%%%444444444444444",
"44444444444444444%%%%==== ** =44444444444==<++ %%%44444444444444444",
"4444444444444444444%%%%%% * ==4444444====%%%%%%%4444444444444444444",
"4444444444444444444444444444444444444444444444444444444444444444444",
"4444444444444444444444444444444444444444444444444444444444444444444",
"4444444444444444444444444444444444444444444444444444444444444444444"
};
